<?xml version="1.0" encoding="UTF-8" standalone="no"?>
<svg width="62.0977mm" height="49.3977mm"
 viewBox="0 0 2347 1867"
 xmlns="http://www.w3.org/2000/svg" xmlns:xlink="http://www.w3.org/1999/xlink"  version="1.2" baseProfile="tiny">
<title>Qt SVG Document</title>
<desc>Generated with Qt</desc>
<defs>
</defs>
<g fill="none" stroke="black" stroke-width="1" fill-rule="evenodd" stroke-linecap="square" stroke-linejoin="bevel" >

<g fill="#ffffff" fill-opacity="1" stroke="#000000" stroke-opacity="1" stroke-width="1" stroke-linecap="butt" stroke-linejoin="miter" stroke-miterlimit="4.97494" transform="matrix(1,0,0,1,0,0)"
font-family="MS Shell Dlg 2" font-size="104" font-weight="400" font-style="normal" 
>
</g>

<g fill="#ffffff" fill-opacity="1" stroke="#000000" stroke-opacity="1" stroke-width="1" stroke-linecap="butt" stroke-linejoin="miter" stroke-miterlimit="4.97494" transform="matrix(1,0,0,1,0,0)"
font-family="MS Shell Dlg 2" font-size="104" font-weight="400" font-style="normal" 
>
</g>

<g fill="#ffffff" fill-opacity="1" stroke="#000000" stroke-opacity="1" stroke-width="1" stroke-linecap="butt" stroke-linejoin="miter" stroke-miterlimit="4.97494" transform="matrix(1,0,0,1,0,0)"
font-family="MS Shell Dlg 2" font-size="104" font-weight="400" font-style="normal" 
>
</g>

<g fill="#d53e4f" fill-opacity="1" stroke="none" transform="matrix(1,0,0,1,0,0)"
font-family="MS Shell Dlg 2" font-size="104" font-weight="400" font-style="normal" 
>
<path vector-effect="none" fill-rule="nonzero" d="M1173.5,933.5 L538.72,933.5 L538.733,937.484 L538.77,941.469 L538.833,945.453 L538.92,949.436 L539.033,953.419 L539.17,957.401 L539.333,961.382 L539.52,965.362 L539.733,969.341 L539.97,973.318 L540.233,977.294 L540.52,981.268 L540.832,985.24 L541.169,989.211 L541.532,993.179 L541.919,997.144 L542.331,1001.11 L542.767,1005.07 L543.229,1009.03 L543.715,1012.98 L544.227,1016.93 L544.763,1020.88 L545.324,1024.82 L545.909,1028.77 L546.52,1032.7 L547.155,1036.64 L547.814,1040.57 L548.499,1044.49 L549.208,1048.41 L549.941,1052.33 L550.699,1056.24 L551.482,1060.15 L552.289,1064.05 L553.121,1067.95 L553.977,1071.84 L554.858,1075.72 L555.763,1079.6 L556.692,1083.48 L557.645,1087.35 L558.623,1091.21 L559.625,1095.07 L560.651,1098.92 L561.702,1102.76 L562.776,1106.6 L563.875,1110.43 L564.997,1114.25 L566.144,1118.06 L567.314,1121.87 L568.509,1125.67 L569.727,1129.47 L570.969,1133.25 L572.234,1137.03 L573.524,1140.8 L574.837,1144.56 L576.174,1148.32 L577.534,1152.06 L578.917,1155.8 L580.324,1159.53 L581.755,1163.25 L583.209,1166.96 L584.686,1170.66 L586.186,1174.35 L587.709,1178.03 L589.255,1181.7 L590.825,1185.36 L592.417,1189.02 L594.033,1192.66 L595.671,1196.29 L597.332,1199.91 L599.015,1203.52 L600.721,1207.12 L602.45,1210.71 L604.201,1214.29 L605.975,1217.86 L607.771,1221.42 L609.59,1224.96 L611.43,1228.5 L613.293,1232.02 L615.178,1235.53 L617.085,1239.03 L619.013,1242.51 L620.964,1245.99 L622.936,1249.45 L624.93,1252.9 L626.946,1256.34 L628.983,1259.76 L631.042,1263.17 L633.122,1266.57 L635.223,1269.96 L637.345,1273.33 L639.489,1276.69 L641.654,1280.03 L643.839,1283.36 L646.046,1286.68 L648.273,1289.99 L650.521,1293.28 L652.79,1296.55 L655.079,1299.81 L657.388,1303.06 L659.718,1306.29 L662.068,1309.51 L664.438,1312.71 L666.829,1315.9 L669.239,1319.07 L671.669,1322.23 L674.119,1325.37 L676.589,1328.5 L679.078,1331.61 L681.586,1334.71 L684.114,1337.79 L686.662,1340.85 L689.228,1343.9 L691.814,1346.93 L694.418,1349.94 L697.042,1352.94 L699.684,1355.93 L702.345,1358.89 L705.024,1361.84 L707.722,1364.77 L710.438,1367.69 L713.173,1370.59 L715.925,1373.47 L718.696,1376.33 L721.484,1379.18 L724.291,1382 L727.115,1384.82 L729.956,1387.61 L732.816,1390.38 L735.692,1393.14 L738.586,1395.88 L741.497,1398.6 L744.424,1401.3 L747.369,1403.99 L750.331,1406.65 L753.309,1409.3 L756.304,1411.93 L759.315,1414.54 L762.343,1417.13 L765.387,1419.7 L768.446,1422.25 L771.522,1424.78 L774.614,1427.3 L777.721,1429.79 L780.844,1432.27 L783.983,1434.72 L787.136,1437.16 L790.305,1439.57 L793.489,1441.97 L796.688,1444.34 L799.902,1446.7 L803.131,1449.03 L806.374,1451.35 L809.632,1453.64 L812.904,1455.91 L1173.5,933.5"/>
</g>

<g fill="#ffffff" fill-opacity="1" stroke="#000000" stroke-opacity="1" stroke-width="1" stroke-linecap="butt" stroke-linejoin="miter" stroke-miterlimit="4.97494" transform="matrix(1,0,0,1,0,0)"
font-family="MS Shell Dlg 2" font-size="104" font-weight="400" font-style="normal" 
>
</g>

<g fill="#ffffff" fill-opacity="1" stroke="#000000" stroke-opacity="1" stroke-width="1" stroke-linecap="butt" stroke-linejoin="miter" stroke-miterlimit="4.97494" transform="matrix(1,0,0,1,0,0)"
font-family="MS Shell Dlg 2" font-size="104" font-weight="400" font-style="normal" 
>
</g>

<g fill="none" stroke="#000000" stroke-opacity="1" stroke-width="13" stroke-linecap="butt" stroke-linejoin="miter" stroke-miterlimit="4.97494" transform="matrix(1,0,0,1,0,0)"
font-family="MS Shell Dlg 2" font-size="104" font-weight="400" font-style="normal" 
>
<path vector-effect="none" fill-rule="nonzero" d="M1173.5,933.5 L538.72,933.5 L538.733,937.484 L538.77,941.469 L538.833,945.453 L538.92,949.436 L539.033,953.419 L539.17,957.401 L539.333,961.382 L539.52,965.362 L539.733,969.341 L539.97,973.318 L540.233,977.294 L540.52,981.268 L540.832,985.24 L541.169,989.211 L541.532,993.179 L541.919,997.144 L542.331,1001.11 L542.767,1005.07 L543.229,1009.03 L543.715,1012.98 L544.227,1016.93 L544.763,1020.88 L545.324,1024.82 L545.909,1028.77 L546.52,1032.7 L547.155,1036.64 L547.814,1040.57 L548.499,1044.49 L549.208,1048.41 L549.941,1052.33 L550.699,1056.24 L551.482,1060.15 L552.289,1064.05 L553.121,1067.95 L553.977,1071.84 L554.858,1075.72 L555.763,1079.6 L556.692,1083.48 L557.645,1087.35 L558.623,1091.21 L559.625,1095.07 L560.651,1098.92 L561.702,1102.76 L562.776,1106.6 L563.875,1110.43 L564.997,1114.25 L566.144,1118.06 L567.314,1121.87 L568.509,1125.67 L569.727,1129.47 L570.969,1133.25 L572.234,1137.03 L573.524,1140.8 L574.837,1144.56 L576.174,1148.32 L577.534,1152.06 L578.917,1155.8 L580.324,1159.53 L581.755,1163.25 L583.209,1166.96 L584.686,1170.66 L586.186,1174.35 L587.709,1178.03 L589.255,1181.7 L590.825,1185.36 L592.417,1189.02 L594.033,1192.66 L595.671,1196.29 L597.332,1199.91 L599.015,1203.52 L600.721,1207.12 L602.45,1210.71 L604.201,1214.29 L605.975,1217.86 L607.771,1221.42 L609.59,1224.96 L611.43,1228.5 L613.293,1232.02 L615.178,1235.53 L617.085,1239.03 L619.013,1242.51 L620.964,1245.99 L622.936,1249.45 L624.93,1252.9 L626.946,1256.34 L628.983,1259.76 L631.042,1263.17 L633.122,1266.57 L635.223,1269.96 L637.345,1273.33 L639.489,1276.69 L641.654,1280.03 L643.839,1283.36 L646.046,1286.68 L648.273,1289.99 L650.521,1293.28 L652.79,1296.55 L655.079,1299.81 L657.388,1303.06 L659.718,1306.29 L662.068,1309.51 L664.438,1312.71 L666.829,1315.9 L669.239,1319.07 L671.669,1322.23 L674.119,1325.37 L676.589,1328.5 L679.078,1331.61 L681.586,1334.71 L684.114,1337.79 L686.662,1340.85 L689.228,1343.9 L691.814,1346.93 L694.418,1349.94 L697.042,1352.94 L699.684,1355.93 L702.345,1358.89 L705.024,1361.84 L707.722,1364.77 L710.438,1367.69 L713.173,1370.59 L715.925,1373.47 L718.696,1376.33 L721.484,1379.18 L724.291,1382 L727.115,1384.82 L729.956,1387.61 L732.816,1390.38 L735.692,1393.14 L738.586,1395.88 L741.497,1398.6 L744.424,1401.3 L747.369,1403.99 L750.331,1406.65 L753.309,1409.3 L756.304,1411.93 L759.315,1414.54 L762.343,1417.13 L765.387,1419.7 L768.446,1422.25 L771.522,1424.78 L774.614,1427.3 L777.721,1429.79 L780.844,1432.27 L783.983,1434.72 L787.136,1437.16 L790.305,1439.57 L793.489,1441.97 L796.688,1444.34 L799.902,1446.7 L803.131,1449.03 L806.374,1451.35 L809.632,1453.64 L812.904,1455.91 L1173.5,933.5"/>
</g>

<g fill="#ffffff" fill-opacity="1" stroke="#000000" stroke-opacity="1" stroke-width="1" stroke-linecap="butt" stroke-linejoin="miter" stroke-miterlimit="4.97494" transform="matrix(1,0,0,1,0,0)"
font-family="MS Shell Dlg 2" font-size="104" font-weight="400" font-style="normal" 
>
</g>

<g fill="#ffffff" fill-opacity="1" stroke="#000000" stroke-opacity="1" stroke-width="1" stroke-linecap="butt" stroke-linejoin="miter" stroke-miterlimit="4.97494" transform="matrix(1,0,0,1,0,0)"
font-family="MS Shell Dlg 2" font-size="104" font-weight="400" font-style="normal" 
>
</g>

<g fill="#fec270" fill-opacity="1" stroke="none" transform="matrix(1,0,0,1,0,0)"
font-family="MS Shell Dlg 2" font-size="104" font-weight="400" font-style="normal" 
>
<path vector-effect="none" fill-rule="nonzero" d="M1173.5,933.5 L812.904,1455.91 L816.188,1458.17 L819.486,1460.4 L822.799,1462.61 L826.125,1464.8 L829.465,1466.97 L832.818,1469.11 L836.185,1471.24 L839.565,1473.35 L842.958,1475.43 L846.364,1477.49 L849.783,1479.53 L853.214,1481.55 L856.659,1483.55 L860.116,1485.53 L863.585,1487.48 L867.066,1489.42 L870.559,1491.33 L874.065,1493.22 L877.582,1495.09 L881.111,1496.93 L884.651,1498.75 L888.202,1500.55 L891.765,1502.33 L895.339,1504.09 L898.924,1505.82 L902.52,1507.53 L906.126,1509.22 L909.743,1510.89 L913.37,1512.53 L917.008,1514.15 L920.655,1515.75 L924.313,1517.32 L927.98,1518.88 L931.657,1520.41 L935.344,1521.91 L939.04,1523.39 L942.745,1524.85 L946.459,1526.29 L950.182,1527.7 L953.914,1529.09 L957.654,1530.46 L961.403,1531.8 L965.161,1533.12 L968.926,1534.41 L972.7,1535.68 L976.482,1536.93 L980.271,1538.16 L984.068,1539.36 L987.872,1540.53 L991.684,1541.68 L995.503,1542.81 L999.329,1543.92 L1003.16,1545 L1007,1546.05 L1010.85,1547.09 L1014.7,1548.1 L1018.56,1549.08 L1022.42,1550.04 L1026.29,1550.98 L1030.17,1551.89 L1034.05,1552.77 L1037.94,1553.64 L1041.83,1554.47 L1045.73,1555.29 L1049.63,1556.08 L1053.54,1556.84 L1057.45,1557.58 L1061.37,1558.3 L1065.29,1558.99 L1069.22,1559.66 L1073.15,1560.3 L1077.08,1560.91 L1081.02,1561.51 L1084.96,1562.08 L1088.91,1562.62 L1092.85,1563.14 L1096.81,1563.63 L1100.76,1564.1 L1104.72,1564.54 L1108.68,1564.96 L1112.64,1565.36 L1116.61,1565.73 L1120.57,1566.07 L1124.54,1566.39 L1128.51,1566.68 L1132.49,1566.95 L1136.46,1567.2 L1140.44,1567.42 L1144.41,1567.61 L1148.39,1567.78 L1152.37,1567.93 L1156.35,1568.05 L1160.33,1568.14 L1164.31,1568.21 L1168.3,1568.26 L1172.28,1568.28 L1176.26,1568.27 L1180.24,1568.24 L1184.22,1568.19 L1188.21,1568.11 L1192.19,1568 L1196.17,1567.88 L1200.15,1567.72 L1204.12,1567.54 L1208.1,1567.34 L1212.08,1567.11 L1216.05,1566.85 L1220.02,1566.57 L1223.99,1566.27 L1227.96,1565.94 L1231.93,1565.59 L1235.89,1565.21 L1239.85,1564.8 L1243.81,1564.37 L1247.77,1563.92 L1251.72,1563.44 L1255.67,1562.94 L1259.62,1562.41 L1263.56,1561.86 L1267.5,1561.28 L1271.44,1560.68 L1275.37,1560.05 L1279.3,1559.4 L1283.22,1558.73 L1287.14,1558.02 L1291.06,1557.3 L1294.97,1556.55 L1298.88,1555.78 L1302.78,1554.98 L1306.67,1554.15 L1310.56,1553.31 L1314.45,1552.43 L1318.33,1551.54 L1322.2,1550.62 L1326.07,1549.67 L1329.93,1548.7 L1333.79,1547.71 L1337.64,1546.69 L1341.48,1545.65 L1345.32,1544.58 L1349.15,1543.49 L1352.97,1542.38 L1356.79,1541.24 L1360.6,1540.08 L1364.4,1538.89 L1368.19,1537.69 L1371.98,1536.45 L1375.76,1535.2 L1379.53,1533.91 L1383.29,1532.61 L1387.05,1531.28 L1390.79,1529.93 L1394.53,1528.56 L1398.26,1527.16 L1401.98,1525.74 L1405.69,1524.29 L1409.39,1522.82 L1413.08,1521.33 L1416.76,1519.82 L1420.44,1518.28 L1424.1,1516.72 L1427.76,1515.14 L1431.4,1513.53 L1435.03,1511.9 L1438.66,1510.25 L1442.27,1508.57 L1445.87,1506.88 L1449.46,1505.16 L1453.04,1503.41 L1456.61,1501.65 L1460.17,1499.86 L1463.72,1498.05 L1467.25,1496.22 L1470.78,1494.37 L1474.29,1492.49 L1477.79,1490.59 L1481.28,1488.67 L1484.76,1486.73 L1488.22,1484.77 L1491.67,1482.78 L1495.11,1480.78 L1498.54,1478.75 L1501.95,1476.7 L1505.35,1474.63 L1508.74,1472.53 L1512.12,1470.42 L1515.48,1468.29 L1518.83,1466.13 L1522.16,1463.95 L1525.48,1461.76 L1528.79,1459.54 L1532.08,1457.3 L1535.36,1455.04 L1538.63,1452.76 L1541.88,1450.46 L1545.11,1448.14 L1548.33,1445.79 L1551.54,1443.43 L1554.73,1441.05 L1557.91,1438.65 L1561.07,1436.23 L1564.21,1433.79 L1567.35,1431.33 L1570.46,1428.85 L1573.56,1426.35 L1576.64,1423.83 L1579.71,1421.29 L1582.76,1418.73 L1585.8,1416.15 L1588.82,1413.56 L1591.82,1410.94 L1594.81,1408.31 L1597.78,1405.66 L1600.73,1402.99 L1603.67,1400.3 L1606.59,1397.59 L1609.49,1394.86 L1612.38,1392.12 L1615.25,1389.36 L1618.1,1386.58 L1620.93,1383.78 L1623.75,1380.96 L1626.55,1378.13 L1629.33,1375.28 L1632.09,1372.41 L1634.83,1369.53 L1637.56,1366.62 L1640.27,1363.7 L1642.96,1360.77 L1645.63,1357.81 L1648.28,1354.84 L1650.91,1351.86 L1653.53,1348.85 L1656.12,1345.83 L1658.7,1342.8 L1661.26,1339.75 L1663.8,1336.68 L1666.32,1333.6 L1668.82,1330.5 L1671.3,1327.38 L1673.76,1324.25 L1676.2,1321.1 L1678.62,1317.94 L1681.02,1314.77 L1683.41,1311.58 L1685.77,1308.37 L1688.11,1305.15 L1690.43,1301.91 L1692.73,1298.66 L1695.01,1295.4 L1697.27,1292.12 L1699.51,1288.83 L1701.73,1285.52 L1703.93,1282.2 L1706.11,1278.87 L1708.26,1275.52 L1710.4,1272.16 L1712.51,1268.78 L1714.6,1265.39 L1716.67,1261.99 L1718.72,1258.58 L1720.75,1255.15 L1722.76,1251.71 L1724.75,1248.26 L1726.71,1244.8 L1728.65,1241.32 L1730.57,1237.83 L1732.47,1234.33 L1734.35,1230.82 L1736.2,1227.29 L1738.03,1223.76 L1739.84,1220.21 L1741.63,1216.65 L1743.39,1213.08 L1745.14,1209.5 L1746.86,1205.91 L1748.55,1202.31 L1750.23,1198.7 L1751.88,1195.07 L1753.51,1191.44 L1755.12,1187.8 L1756.7,1184.14 L1758.26,1180.48 L1759.8,1176.81 L1761.31,1173.12 L1762.81,1169.43 L1764.27,1165.73 L1765.72,1162.02 L1767.14,1158.3 L1768.54,1154.57 L1769.92,1150.83 L1771.27,1147.09 L1772.6,1143.33 L1773.9,1139.57 L1775.18,1135.8 L1776.44,1132.02 L1777.67,1128.24 L1778.88,1124.44 L1780.07,1120.64 L1781.23,1116.83 L1782.37,1113.02 L1783.48,1109.19 L1784.57,1105.36 L1785.64,1101.53 L1786.68,1097.68 L1787.7,1093.83 L1788.69,1089.98 L1789.66,1086.12 L1790.61,1082.25 L1791.53,1078.37 L1792.42,1074.49 L1793.3,1070.61 L1794.14,1066.72 L1794.97,1062.82 L1795.77,1058.92 L1796.54,1055.01 L1797.29,1051.1 L1798.02,1047.19 L1798.72,1043.27 L1799.39,1039.34 L1800.05,1035.42 L1800.67,1031.48 L1801.27,1027.55 L1801.85,1023.61 L1802.41,1019.66 L1802.93,1015.72 L1803.44,1011.77 L1803.92,1007.81 L1804.37,1003.86 L1804.8,999.898 L1805.2,995.936 L1805.58,991.972 L1805.94,988.006 L1806.27,984.037 L1806.57,980.067 L1806.85,976.095 L1807.1,972.121 L1807.33,968.145 L1807.54,964.168 L1807.72,960.19 L1807.87,956.211 L1808,952.231 L1808.11,948.251 L1808.19,944.269 L1808.24,940.288 L1808.27,936.306 L1808.28,932.323 L1808.26,928.341 L1808.21,924.36 L1808.14,920.378 L1808.05,916.397 L1807.93,912.417 L1807.79,908.437 L1807.62,904.459 L1807.42,900.482 L1807.2,896.505 L1806.96,892.531 L1806.69,888.558 L1806.39,884.587 L1806.07,880.617 L1805.73,876.65 L1805.36,872.685 L1804.97,868.723 L1804.55,864.763 L1804.1,860.805 L1803.64,856.851 L1803.14,852.9 L1802.62,848.951 L1802.08,845.006 L1801.51,841.065 L1800.92,837.127 L1800.3,833.193 L1799.66,829.263 L1799,825.337 L1798.31,821.415 L1797.59,817.498 L1796.85,813.585 L1796.09,809.677 L1795.3,805.774 L1794.48,801.876 L1793.65,797.983 L1792.78,794.095 L1791.9,790.213 L1790.99,786.337 L1790.05,782.466 L1789.09,778.601 L1788.11,774.743 L1787.1,770.89 L1786.07,767.044 L1785.01,763.205 L1783.93,759.372 L1782.83,755.546 L1781.7,751.727 L1780.55,747.916 L1779.37,744.111 L1778.17,740.314 L1776.95,736.525 L1775.7,732.743 L1774.43,728.969 L1773.13,725.204 L1771.81,721.446 L1770.47,717.697 L1769.11,713.956 L1767.72,710.224 L1766.3,706.501 L1764.87,702.787 L1763.41,699.082 L1761.93,695.386 L1760.42,691.699 L1758.89,688.022 L1757.34,684.354 L1755.77,680.697 L1754.17,677.049 L1752.55,673.412 L1750.91,669.784 L1749.24,666.167 L1747.55,662.561 L1745.84,658.965 L1744.11,655.38 L1742.35,651.806 L1740.57,648.243 L1738.77,644.691 L1736.95,641.151 L1735.11,637.622 L1733.24,634.105 L1731.35,630.599 L1729.44,627.106 L1727.51,623.624 L1725.55,620.155 L1723.57,616.698 L1721.58,613.254 L1719.56,609.822 L1717.52,606.403 L1715.45,602.996 L1713.37,599.603 L1711.26,596.223 L1709.14,592.856 L1706.99,589.503 L1704.82,586.163 L1702.63,582.836 L1700.42,579.524 L1698.19,576.226 L1695.94,572.941 L1693.67,569.671 L1691.37,566.415 L1689.06,563.173 L1686.73,559.947 L1684.37,556.734 L1682,553.537 L1679.61,550.354 L1677.19,547.187 L1674.76,544.035 L1672.31,540.898 L1669.84,537.777 L1667.34,534.671 L1664.83,531.581 L1662.3,528.507 L1659.75,525.448 L1657.18,522.406 L1654.59,519.38 L1651.99,516.37 L1649.36,513.377 L1646.71,510.4 L1644.05,507.439 L1641.37,504.496 L1638.67,501.569 L1635.95,498.66 L1633.21,495.767 L1630.46,492.892 L1627.68,490.034 L1624.89,487.194 L1622.09,484.371 L1619.26,481.566 L1616.42,478.778 L1613.55,476.009 L1610.68,473.257 L1607.78,470.524 L1604.87,467.809 L1601.94,465.112 L1598.99,462.433 L1596.03,459.773 L1593.05,457.132 L1590.05,454.51 L1587.04,451.906 L1584.01,449.321 L1580.96,446.756 L1577.9,444.209 L1574.82,441.682 L1571.73,439.174 L1568.62,436.685 L1565.5,434.217 L1562.36,431.767 L1559.2,429.338 L1556.03,426.928 L1552.85,424.538 L1549.65,422.169 L1546.43,419.819 L1543.2,417.49 L1539.96,415.181 L1536.7,412.892 L1533.43,410.624 L1530.14,408.376 L1526.84,406.15 L1523.52,403.943 L1520.19,401.758 L1516.85,399.594 L1513.49,397.45 L1510.13,395.328 L1506.74,393.227 L1503.35,391.147 L1499.94,389.088 L1496.52,387.051 L1493.08,385.036 L1489.64,383.042 L1486.18,381.069 L1482.7,379.119 L1479.22,377.19 L1475.72,375.283 L1472.22,373.398 L1468.7,371.535 L1465.17,369.695 L1461.62,367.876 L1458.07,366.08 L1454.5,364.306 L1450.93,362.554 L1447.34,360.825 L1443.74,359.118 L1440.13,357.434 L1436.52,355.773 L1432.89,354.135 L1429.25,352.519 L1425.6,350.926 L1421.94,349.356 L1418.27,347.809 L1414.59,346.285 L1410.9,344.784 L1407.2,343.306 L1403.5,341.852 L1399.78,340.421 L1396.06,339.013 L1392.32,337.629 L1388.58,336.268 L1384.83,334.93 L1381.07,333.616 L1377.3,332.326 L1373.53,331.059 L1369.74,329.816 L1365.95,328.597 L1362.15,327.402 L1358.35,326.23 L1354.54,325.083 L1350.72,323.959 L1346.89,322.859 L1343.05,321.783 L1339.21,320.732 L1335.37,319.704 L1331.51,318.701 L1327.65,317.722 L1323.79,316.767 L1319.91,315.836 L1316.04,314.93 L1312.15,314.048 L1308.27,313.19 L1304.37,312.357 L1300.47,311.548 L1173.5,933.5"/>
</g>

<g fill="#ffffff" fill-opacity="1" stroke="#000000" stroke-opacity="1" stroke-width="1" stroke-linecap="butt" stroke-linejoin="miter" stroke-miterlimit="4.97494" transform="matrix(1,0,0,1,0,0)"
font-family="MS Shell Dlg 2" font-size="104" font-weight="400" font-style="normal" 
>
</g>

<g fill="#ffffff" fill-opacity="1" stroke="#000000" stroke-opacity="1" stroke-width="1" stroke-linecap="butt" stroke-linejoin="miter" stroke-miterlimit="4.97494" transform="matrix(1,0,0,1,0,0)"
font-family="MS Shell Dlg 2" font-size="104" font-weight="400" font-style="normal" 
>
</g>

<g fill="none" stroke="#000000" stroke-opacity="1" stroke-width="13" stroke-linecap="butt" stroke-linejoin="miter" stroke-miterlimit="4.97494" transform="matrix(1,0,0,1,0,0)"
font-family="MS Shell Dlg 2" font-size="104" font-weight="400" font-style="normal" 
>
<path vector-effect="none" fill-rule="nonzero" d="M1173.5,933.5 L812.904,1455.91 L816.188,1458.17 L819.486,1460.4 L822.799,1462.61 L826.125,1464.8 L829.465,1466.97 L832.818,1469.11 L836.185,1471.24 L839.565,1473.35 L842.958,1475.43 L846.364,1477.49 L849.783,1479.53 L853.214,1481.55 L856.659,1483.55 L860.116,1485.53 L863.585,1487.48 L867.066,1489.42 L870.559,1491.33 L874.065,1493.22 L877.582,1495.09 L881.111,1496.93 L884.651,1498.75 L888.202,1500.55 L891.765,1502.33 L895.339,1504.09 L898.924,1505.82 L902.52,1507.53 L906.126,1509.22 L909.743,1510.89 L913.37,1512.53 L917.008,1514.15 L920.655,1515.75 L924.313,1517.32 L927.98,1518.88 L931.657,1520.41 L935.344,1521.91 L939.04,1523.39 L942.745,1524.85 L946.459,1526.29 L950.182,1527.7 L953.914,1529.09 L957.654,1530.46 L961.403,1531.8 L965.161,1533.12 L968.926,1534.41 L972.7,1535.68 L976.482,1536.93 L980.271,1538.16 L984.068,1539.36 L987.872,1540.53 L991.684,1541.68 L995.503,1542.81 L999.329,1543.92 L1003.16,1545 L1007,1546.05 L1010.85,1547.09 L1014.7,1548.1 L1018.56,1549.08 L1022.42,1550.04 L1026.29,1550.98 L1030.17,1551.89 L1034.05,1552.77 L1037.94,1553.64 L1041.83,1554.47 L1045.73,1555.29 L1049.63,1556.08 L1053.54,1556.84 L1057.45,1557.58 L1061.37,1558.3 L1065.29,1558.99 L1069.22,1559.66 L1073.15,1560.3 L1077.08,1560.91 L1081.02,1561.51 L1084.96,1562.08 L1088.91,1562.62 L1092.85,1563.14 L1096.81,1563.63 L1100.76,1564.1 L1104.72,1564.54 L1108.68,1564.96 L1112.64,1565.36 L1116.61,1565.73 L1120.57,1566.07 L1124.54,1566.39 L1128.51,1566.68 L1132.49,1566.95 L1136.46,1567.2 L1140.44,1567.42 L1144.41,1567.61 L1148.39,1567.78 L1152.37,1567.93 L1156.35,1568.05 L1160.33,1568.14 L1164.31,1568.21 L1168.3,1568.26 L1172.28,1568.28 L1176.26,1568.27 L1180.24,1568.24 L1184.22,1568.19 L1188.21,1568.11 L1192.19,1568 L1196.17,1567.88 L1200.15,1567.72 L1204.12,1567.54 L1208.1,1567.34 L1212.08,1567.11 L1216.05,1566.85 L1220.02,1566.57 L1223.99,1566.27 L1227.96,1565.94 L1231.93,1565.59 L1235.89,1565.21 L1239.85,1564.8 L1243.81,1564.37 L1247.77,1563.92 L1251.72,1563.44 L1255.67,1562.94 L1259.62,1562.41 L1263.56,1561.86 L1267.5,1561.28 L1271.44,1560.68 L1275.37,1560.05 L1279.3,1559.4 L1283.22,1558.73 L1287.14,1558.02 L1291.06,1557.3 L1294.97,1556.55 L1298.88,1555.78 L1302.78,1554.98 L1306.67,1554.15 L1310.56,1553.31 L1314.45,1552.43 L1318.33,1551.54 L1322.2,1550.62 L1326.07,1549.67 L1329.93,1548.7 L1333.79,1547.71 L1337.64,1546.69 L1341.48,1545.65 L1345.32,1544.58 L1349.15,1543.49 L1352.97,1542.38 L1356.79,1541.24 L1360.6,1540.08 L1364.4,1538.89 L1368.19,1537.69 L1371.98,1536.45 L1375.76,1535.2 L1379.53,1533.91 L1383.29,1532.61 L1387.05,1531.28 L1390.79,1529.93 L1394.53,1528.56 L1398.26,1527.16 L1401.98,1525.74 L1405.69,1524.29 L1409.39,1522.82 L1413.08,1521.33 L1416.76,1519.82 L1420.44,1518.28 L1424.1,1516.72 L1427.76,1515.14 L1431.4,1513.53 L1435.03,1511.9 L1438.66,1510.25 L1442.27,1508.57 L1445.87,1506.88 L1449.46,1505.16 L1453.04,1503.41 L1456.61,1501.65 L1460.17,1499.86 L1463.72,1498.05 L1467.25,1496.22 L1470.78,1494.37 L1474.29,1492.49 L1477.79,1490.59 L1481.28,1488.67 L1484.76,1486.73 L1488.22,1484.77 L1491.67,1482.78 L1495.11,1480.78 L1498.54,1478.75 L1501.95,1476.7 L1505.35,1474.63 L1508.74,1472.53 L1512.12,1470.42 L1515.48,1468.29 L1518.83,1466.13 L1522.16,1463.95 L1525.48,1461.76 L1528.79,1459.54 L1532.08,1457.3 L1535.36,1455.04 L1538.63,1452.76 L1541.88,1450.46 L1545.11,1448.14 L1548.33,1445.79 L1551.54,1443.43 L1554.73,1441.05 L1557.91,1438.65 L1561.07,1436.23 L1564.21,1433.79 L1567.35,1431.33 L1570.46,1428.85 L1573.56,1426.35 L1576.64,1423.83 L1579.71,1421.29 L1582.76,1418.73 L1585.8,1416.15 L1588.82,1413.56 L1591.82,1410.94 L1594.81,1408.31 L1597.78,1405.66 L1600.73,1402.99 L1603.67,1400.3 L1606.59,1397.59 L1609.49,1394.86 L1612.38,1392.12 L1615.25,1389.36 L1618.1,1386.58 L1620.93,1383.78 L1623.75,1380.96 L1626.55,1378.13 L1629.33,1375.28 L1632.09,1372.41 L1634.83,1369.53 L1637.56,1366.62 L1640.27,1363.7 L1642.96,1360.77 L1645.63,1357.81 L1648.28,1354.84 L1650.91,1351.86 L1653.53,1348.85 L1656.12,1345.83 L1658.7,1342.8 L1661.26,1339.75 L1663.8,1336.68 L1666.32,1333.6 L1668.82,1330.5 L1671.3,1327.38 L1673.76,1324.25 L1676.2,1321.1 L1678.62,1317.94 L1681.02,1314.77 L1683.41,1311.58 L1685.77,1308.37 L1688.11,1305.15 L1690.43,1301.91 L1692.73,1298.66 L1695.01,1295.4 L1697.27,1292.12 L1699.51,1288.83 L1701.73,1285.52 L1703.93,1282.2 L1706.11,1278.87 L1708.26,1275.52 L1710.4,1272.16 L1712.51,1268.78 L1714.6,1265.39 L1716.67,1261.99 L1718.72,1258.58 L1720.75,1255.15 L1722.76,1251.71 L1724.75,1248.26 L1726.71,1244.8 L1728.65,1241.32 L1730.57,1237.83 L1732.47,1234.33 L1734.35,1230.82 L1736.2,1227.29 L1738.03,1223.76 L1739.84,1220.21 L1741.63,1216.65 L1743.39,1213.08 L1745.14,1209.5 L1746.86,1205.91 L1748.55,1202.31 L1750.23,1198.7 L1751.88,1195.07 L1753.51,1191.44 L1755.12,1187.8 L1756.7,1184.14 L1758.26,1180.48 L1759.8,1176.81 L1761.31,1173.12 L1762.81,1169.43 L1764.27,1165.73 L1765.72,1162.02 L1767.14,1158.3 L1768.54,1154.57 L1769.92,1150.83 L1771.27,1147.09 L1772.6,1143.33 L1773.9,1139.57 L1775.18,1135.8 L1776.44,1132.02 L1777.67,1128.24 L1778.88,1124.44 L1780.07,1120.64 L1781.23,1116.83 L1782.37,1113.02 L1783.48,1109.19 L1784.57,1105.36 L1785.64,1101.53 L1786.68,1097.68 L1787.7,1093.83 L1788.69,1089.98 L1789.66,1086.12 L1790.61,1082.25 L1791.53,1078.37 L1792.42,1074.49 L1793.3,1070.61 L1794.14,1066.72 L1794.97,1062.82 L1795.77,1058.92 L1796.54,1055.01 L1797.29,1051.1 L1798.02,1047.19 L1798.72,1043.27 L1799.39,1039.34 L1800.05,1035.42 L1800.67,1031.48 L1801.27,1027.55 L1801.85,1023.61 L1802.41,1019.66 L1802.93,1015.72 L1803.44,1011.77 L1803.92,1007.81 L1804.37,1003.86 L1804.8,999.898 L1805.2,995.936 L1805.58,991.972 L1805.94,988.006 L1806.27,984.037 L1806.57,980.067 L1806.85,976.095 L1807.1,972.121 L1807.33,968.145 L1807.54,964.168 L1807.72,960.19 L1807.87,956.211 L1808,952.231 L1808.11,948.251 L1808.19,944.269 L1808.24,940.288 L1808.27,936.306 L1808.28,932.323 L1808.26,928.341 L1808.21,924.36 L1808.14,920.378 L1808.05,916.397 L1807.93,912.417 L1807.79,908.437 L1807.62,904.459 L1807.42,900.482 L1807.2,896.505 L1806.96,892.531 L1806.69,888.558 L1806.39,884.587 L1806.07,880.617 L1805.73,876.65 L1805.36,872.685 L1804.97,868.723 L1804.55,864.763 L1804.1,860.805 L1803.64,856.851 L1803.14,852.9 L1802.62,848.951 L1802.08,845.006 L1801.51,841.065 L1800.92,837.127 L1800.3,833.193 L1799.66,829.263 L1799,825.337 L1798.31,821.415 L1797.59,817.498 L1796.85,813.585 L1796.09,809.677 L1795.3,805.774 L1794.48,801.876 L1793.65,797.983 L1792.78,794.095 L1791.9,790.213 L1790.99,786.337 L1790.05,782.466 L1789.09,778.601 L1788.11,774.743 L1787.1,770.89 L1786.07,767.044 L1785.01,763.205 L1783.93,759.372 L1782.83,755.546 L1781.7,751.727 L1780.55,747.916 L1779.37,744.111 L1778.17,740.314 L1776.95,736.525 L1775.7,732.743 L1774.43,728.969 L1773.13,725.204 L1771.81,721.446 L1770.47,717.697 L1769.11,713.956 L1767.72,710.224 L1766.3,706.501 L1764.87,702.787 L1763.41,699.082 L1761.93,695.386 L1760.42,691.699 L1758.89,688.022 L1757.34,684.354 L1755.77,680.697 L1754.17,677.049 L1752.55,673.412 L1750.91,669.784 L1749.24,666.167 L1747.55,662.561 L1745.84,658.965 L1744.11,655.38 L1742.35,651.806 L1740.57,648.243 L1738.77,644.691 L1736.95,641.151 L1735.11,637.622 L1733.24,634.105 L1731.35,630.599 L1729.44,627.106 L1727.51,623.624 L1725.55,620.155 L1723.57,616.698 L1721.58,613.254 L1719.56,609.822 L1717.52,606.403 L1715.45,602.996 L1713.37,599.603 L1711.26,596.223 L1709.14,592.856 L1706.99,589.503 L1704.82,586.163 L1702.63,582.836 L1700.42,579.524 L1698.19,576.226 L1695.94,572.941 L1693.67,569.671 L1691.37,566.415 L1689.06,563.173 L1686.73,559.947 L1684.37,556.734 L1682,553.537 L1679.61,550.354 L1677.19,547.187 L1674.76,544.035 L1672.31,540.898 L1669.84,537.777 L1667.34,534.671 L1664.83,531.581 L1662.3,528.507 L1659.75,525.448 L1657.18,522.406 L1654.59,519.38 L1651.99,516.37 L1649.36,513.377 L1646.71,510.4 L1644.05,507.439 L1641.37,504.496 L1638.67,501.569 L1635.95,498.66 L1633.21,495.767 L1630.46,492.892 L1627.68,490.034 L1624.89,487.194 L1622.09,484.371 L1619.26,481.566 L1616.42,478.778 L1613.55,476.009 L1610.68,473.257 L1607.78,470.524 L1604.87,467.809 L1601.94,465.112 L1598.99,462.433 L1596.03,459.773 L1593.05,457.132 L1590.05,454.51 L1587.04,451.906 L1584.01,449.321 L1580.96,446.756 L1577.9,444.209 L1574.82,441.682 L1571.73,439.174 L1568.62,436.685 L1565.5,434.217 L1562.36,431.767 L1559.2,429.338 L1556.03,426.928 L1552.85,424.538 L1549.65,422.169 L1546.43,419.819 L1543.2,417.49 L1539.96,415.181 L1536.7,412.892 L1533.43,410.624 L1530.14,408.376 L1526.84,406.15 L1523.52,403.943 L1520.19,401.758 L1516.85,399.594 L1513.49,397.45 L1510.13,395.328 L1506.74,393.227 L1503.35,391.147 L1499.94,389.088 L1496.52,387.051 L1493.08,385.036 L1489.64,383.042 L1486.18,381.069 L1482.7,379.119 L1479.22,377.19 L1475.72,375.283 L1472.22,373.398 L1468.7,371.535 L1465.17,369.695 L1461.62,367.876 L1458.07,366.08 L1454.5,364.306 L1450.93,362.554 L1447.34,360.825 L1443.74,359.118 L1440.13,357.434 L1436.52,355.773 L1432.89,354.135 L1429.25,352.519 L1425.6,350.926 L1421.94,349.356 L1418.27,347.809 L1414.59,346.285 L1410.9,344.784 L1407.2,343.306 L1403.5,341.852 L1399.78,340.421 L1396.06,339.013 L1392.32,337.629 L1388.58,336.268 L1384.83,334.93 L1381.07,333.616 L1377.3,332.326 L1373.53,331.059 L1369.74,329.816 L1365.95,328.597 L1362.15,327.402 L1358.35,326.23 L1354.54,325.083 L1350.72,323.959 L1346.89,322.859 L1343.05,321.783 L1339.21,320.732 L1335.37,319.704 L1331.51,318.701 L1327.65,317.722 L1323.79,316.767 L1319.91,315.836 L1316.04,314.93 L1312.15,314.048 L1308.27,313.19 L1304.37,312.357 L1300.47,311.548 L1173.5,933.5"/>
</g>

<g fill="#ffffff" fill-opacity="1" stroke="#000000" stroke-opacity="1" stroke-width="1" stroke-linecap="butt" stroke-linejoin="miter" stroke-miterlimit="4.97494" transform="matrix(1,0,0,1,0,0)"
font-family="MS Shell Dlg 2" font-size="104" font-weight="400" font-style="normal" 
>
</g>

<g fill="#ffffff" fill-opacity="1" stroke="#000000" stroke-opacity="1" stroke-width="1" stroke-linecap="butt" stroke-linejoin="miter" stroke-miterlimit="4.97494" transform="matrix(1,0,0,1,0,0)"
font-family="MS Shell Dlg 2" font-size="104" font-weight="400" font-style="normal" 
>
</g>

<g fill="#c1e7a2" fill-opacity="1" stroke="none" transform="matrix(1,0,0,1,0,0)"
font-family="MS Shell Dlg 2" font-size="104" font-weight="400" font-style="normal" 
>
<path vector-effect="none" fill-rule="nonzero" d="M1173.5,933.5 L1300.47,311.548 L1296.58,310.766 L1292.67,310.007 L1288.77,309.273 L1284.86,308.563 L1280.94,307.878 L1277.02,307.218 L1273.1,306.582 L1269.17,305.971 L1265.24,305.384 L1261.3,304.822 L1257.36,304.284 L1253.42,303.771 L1249.48,303.283 L1245.53,302.82 L1241.58,302.381 L1237.62,301.967 L1233.67,301.578 L1229.71,301.214 L1225.75,300.874 L1221.79,300.559 L1217.82,300.269 L1213.86,300.004 L1209.89,299.764 L1205.92,299.548 L1201.95,299.358 L1197.98,299.192 L1194,299.051 L1190.03,298.935 L1186.06,298.844 L1182.08,298.778 L1178.11,298.737 L1174.13,298.72 L1170.16,298.729 L1166.18,298.762 L1162.21,298.82 L1158.23,298.904 L1154.26,299.012 L1150.29,299.145 L1146.32,299.302 L1142.34,299.485 L1138.37,299.693 L1134.41,299.925 L1130.44,300.182 L1126.47,300.464 L1122.51,300.771 L1118.55,301.103 L1114.59,301.459 L1110.63,301.841 L1106.68,302.247 L1102.73,302.677 L1098.78,303.133 L1094.83,303.613 L1090.89,304.118 L1086.95,304.648 L1083.02,305.202 L1079.08,305.781 L1075.15,306.385 L1071.23,307.013 L1067.31,307.666 L1063.39,308.343 L1059.48,309.045 L1055.57,309.771 L1051.67,310.522 L1047.77,311.297 L1043.87,312.096 L1039.98,312.92 L1036.1,313.768 L1032.22,314.641 L1028.35,315.538 L1024.48,316.459 L1020.62,317.404 L1016.77,318.374 L1012.92,319.367 L1009.08,320.385 L1005.24,321.426 L1001.41,322.492 L997.587,323.582 L993.772,324.695 L989.963,325.833 L986.161,326.994 L982.367,328.179 L978.58,329.388 L974.801,330.62 L971.029,331.876 L967.266,333.156 L963.51,334.459 L959.763,335.786 L956.025,337.136 L952.294,338.509 L948.573,339.906 L944.86,341.326 L941.156,342.77 L937.462,344.236 L933.776,345.726 L930.1,347.239 L926.434,348.774 L922.777,350.333 L919.13,351.915 L915.493,353.519 L911.866,355.146 L908.25,356.796 L904.644,358.468 L901.048,360.163 L897.463,361.88 L893.889,363.62 L890.326,365.382 L886.774,367.166 L883.233,368.973 L879.704,370.802 L876.186,372.653 L872.679,374.525 L869.185,376.42 L865.703,378.337 L862.232,380.275 L858.774,382.235 L855.328,384.217 L851.895,386.22 L848.474,388.245 L845.066,390.291 L841.67,392.358 L838.288,394.446 L834.919,396.556 L831.564,398.687 L828.221,400.839 L824.892,403.011 L821.577,405.205 L818.276,407.419 L814.989,409.653 L811.715,411.909 L808.456,414.185 L805.211,416.481 L801.981,418.797 L798.765,421.134 L795.564,423.49 L792.378,425.867 L789.206,428.264 L786.05,430.68 L782.909,433.116 L779.783,435.572 L776.673,438.047 L773.578,440.542 L770.499,443.056 L767.435,445.589 L764.388,448.141 L761.357,450.713 L758.342,453.303 L755.343,455.912 L752.36,458.54 L749.394,461.187 L746.445,463.852 L743.512,466.535 L740.596,469.237 L737.698,471.957 L734.816,474.695 L731.952,477.451 L729.104,480.225 L726.275,483.017 L723.463,485.826 L720.668,488.653 L717.891,491.497 L715.132,494.359 L712.391,497.238 L709.668,500.134 L706.964,503.047 L704.277,505.977 L701.609,508.924 L698.96,511.887 L696.329,514.867 L693.717,517.863 L691.124,520.876 L688.549,523.905 L685.994,526.95 L683.457,530.01 L680.94,533.087 L678.443,536.179 L675.964,539.287 L673.505,542.41 L671.066,545.549 L668.647,548.703 L666.247,551.872 L663.867,555.056 L661.507,558.255 L659.167,561.468 L656.848,564.696 L654.548,567.939 L652.269,571.196 L650.011,574.467 L647.773,577.752 L645.555,581.051 L643.359,584.364 L641.183,587.691 L639.028,591.031 L636.894,594.385 L634.781,597.751 L632.689,601.132 L630.618,604.525 L628.569,607.931 L626.541,611.349 L624.534,614.781 L622.549,618.225 L620.585,621.681 L618.644,625.15 L616.724,628.63 L614.825,632.123 L612.949,635.627 L611.095,639.143 L609.262,642.671 L607.452,646.21 L605.664,649.76 L603.899,653.321 L602.155,656.894 L600.434,660.477 L598.736,664.071 L597.06,667.675 L595.407,671.29 L593.776,674.916 L592.168,678.551 L590.583,682.196 L589.021,685.852 L587.482,689.516 L585.965,693.191 L584.472,696.875 L583.002,700.568 L581.555,704.27 L580.131,707.982 L578.73,711.702 L577.353,715.431 L575.999,719.168 L574.669,722.914 L573.362,726.668 L572.078,730.43 L570.818,734.2 L569.582,737.978 L568.37,741.764 L567.181,745.557 L566.016,749.357 L564.875,753.165 L563.757,756.98 L562.664,760.802 L561.594,764.63 L560.549,768.465 L559.527,772.307 L558.53,776.155 L557.557,780.009 L556.608,783.869 L555.683,787.735 L554.782,791.607 L553.906,795.484 L553.054,799.366 L552.226,803.254 L551.422,807.147 L550.643,811.045 L549.889,814.948 L549.159,818.856 L548.453,822.767 L547.772,826.684 L547.115,830.604 L546.483,834.529 L545.876,838.457 L545.293,842.389 L544.734,846.325 L544.201,850.264 L543.692,854.206 L543.208,858.152 L542.748,862.1 L542.314,866.051 L541.904,870.005 L541.518,873.962 L541.158,877.92 L540.822,881.881 L540.511,885.844 L540.225,889.809 L539.964,893.775 L539.728,897.743 L539.516,901.713 L539.33,905.683 L539.168,909.655 L539.031,913.628 L538.919,917.601 L538.832,921.575 L538.77,925.55 L538.732,929.525 L538.72,933.5 L1173.5,933.5"/>
</g>

<g fill="#ffffff" fill-opacity="1" stroke="#000000" stroke-opacity="1" stroke-width="1" stroke-linecap="butt" stroke-linejoin="miter" stroke-miterlimit="4.97494" transform="matrix(1,0,0,1,0,0)"
font-family="MS Shell Dlg 2" font-size="104" font-weight="400" font-style="normal" 
>
</g>

<g fill="#ffffff" fill-opacity="1" stroke="#000000" stroke-opacity="1" stroke-width="1" stroke-linecap="butt" stroke-linejoin="miter" stroke-miterlimit="4.97494" transform="matrix(1,0,0,1,0,0)"
font-family="MS Shell Dlg 2" font-size="104" font-weight="400" font-style="normal" 
>
</g>

<g fill="none" stroke="#000000" stroke-opacity="1" stroke-width="13" stroke-linecap="butt" stroke-linejoin="miter" stroke-miterlimit="4.97494" transform="matrix(1,0,0,1,0,0)"
font-family="MS Shell Dlg 2" font-size="104" font-weight="400" font-style="normal" 
>
<path vector-effect="none" fill-rule="nonzero" d="M1173.5,933.5 L1300.47,311.548 L1296.58,310.766 L1292.67,310.007 L1288.77,309.273 L1284.86,308.563 L1280.94,307.878 L1277.02,307.218 L1273.1,306.582 L1269.17,305.971 L1265.24,305.384 L1261.3,304.822 L1257.36,304.284 L1253.42,303.771 L1249.48,303.283 L1245.53,302.82 L1241.58,302.381 L1237.62,301.967 L1233.67,301.578 L1229.71,301.214 L1225.75,300.874 L1221.79,300.559 L1217.82,300.269 L1213.86,300.004 L1209.89,299.764 L1205.92,299.548 L1201.95,299.358 L1197.98,299.192 L1194,299.051 L1190.03,298.935 L1186.06,298.844 L1182.08,298.778 L1178.11,298.737 L1174.13,298.72 L1170.16,298.729 L1166.18,298.762 L1162.21,298.82 L1158.23,298.904 L1154.26,299.012 L1150.29,299.145 L1146.32,299.302 L1142.34,299.485 L1138.37,299.693 L1134.41,299.925 L1130.44,300.182 L1126.47,300.464 L1122.51,300.771 L1118.55,301.103 L1114.59,301.459 L1110.63,301.841 L1106.68,302.247 L1102.73,302.677 L1098.78,303.133 L1094.83,303.613 L1090.89,304.118 L1086.95,304.648 L1083.02,305.202 L1079.08,305.781 L1075.15,306.385 L1071.23,307.013 L1067.31,307.666 L1063.39,308.343 L1059.48,309.045 L1055.57,309.771 L1051.67,310.522 L1047.77,311.297 L1043.87,312.096 L1039.98,312.92 L1036.1,313.768 L1032.22,314.641 L1028.35,315.538 L1024.48,316.459 L1020.62,317.404 L1016.77,318.374 L1012.92,319.367 L1009.08,320.385 L1005.24,321.426 L1001.41,322.492 L997.587,323.582 L993.772,324.695 L989.963,325.833 L986.161,326.994 L982.367,328.179 L978.58,329.388 L974.801,330.62 L971.029,331.876 L967.266,333.156 L963.51,334.459 L959.763,335.786 L956.025,337.136 L952.294,338.509 L948.573,339.906 L944.86,341.326 L941.156,342.77 L937.462,344.236 L933.776,345.726 L930.1,347.239 L926.434,348.774 L922.777,350.333 L919.13,351.915 L915.493,353.519 L911.866,355.146 L908.25,356.796 L904.644,358.468 L901.048,360.163 L897.463,361.88 L893.889,363.62 L890.326,365.382 L886.774,367.166 L883.233,368.973 L879.704,370.802 L876.186,372.653 L872.679,374.525 L869.185,376.42 L865.703,378.337 L862.232,380.275 L858.774,382.235 L855.328,384.217 L851.895,386.22 L848.474,388.245 L845.066,390.291 L841.67,392.358 L838.288,394.446 L834.919,396.556 L831.564,398.687 L828.221,400.839 L824.892,403.011 L821.577,405.205 L818.276,407.419 L814.989,409.653 L811.715,411.909 L808.456,414.185 L805.211,416.481 L801.981,418.797 L798.765,421.134 L795.564,423.49 L792.378,425.867 L789.206,428.264 L786.05,430.68 L782.909,433.116 L779.783,435.572 L776.673,438.047 L773.578,440.542 L770.499,443.056 L767.435,445.589 L764.388,448.141 L761.357,450.713 L758.342,453.303 L755.343,455.912 L752.36,458.54 L749.394,461.187 L746.445,463.852 L743.512,466.535 L740.596,469.237 L737.698,471.957 L734.816,474.695 L731.952,477.451 L729.104,480.225 L726.275,483.017 L723.463,485.826 L720.668,488.653 L717.891,491.497 L715.132,494.359 L712.391,497.238 L709.668,500.134 L706.964,503.047 L704.277,505.977 L701.609,508.924 L698.96,511.887 L696.329,514.867 L693.717,517.863 L691.124,520.876 L688.549,523.905 L685.994,526.95 L683.457,530.01 L680.94,533.087 L678.443,536.179 L675.964,539.287 L673.505,542.41 L671.066,545.549 L668.647,548.703 L666.247,551.872 L663.867,555.056 L661.507,558.255 L659.167,561.468 L656.848,564.696 L654.548,567.939 L652.269,571.196 L650.011,574.467 L647.773,577.752 L645.555,581.051 L643.359,584.364 L641.183,587.691 L639.028,591.031 L636.894,594.385 L634.781,597.751 L632.689,601.132 L630.618,604.525 L628.569,607.931 L626.541,611.349 L624.534,614.781 L622.549,618.225 L620.585,621.681 L618.644,625.15 L616.724,628.63 L614.825,632.123 L612.949,635.627 L611.095,639.143 L609.262,642.671 L607.452,646.21 L605.664,649.76 L603.899,653.321 L602.155,656.894 L600.434,660.477 L598.736,664.071 L597.06,667.675 L595.407,671.29 L593.776,674.916 L592.168,678.551 L590.583,682.196 L589.021,685.852 L587.482,689.516 L585.965,693.191 L584.472,696.875 L583.002,700.568 L581.555,704.27 L580.131,707.982 L578.73,711.702 L577.353,715.431 L575.999,719.168 L574.669,722.914 L573.362,726.668 L572.078,730.43 L570.818,734.2 L569.582,737.978 L568.37,741.764 L567.181,745.557 L566.016,749.357 L564.875,753.165 L563.757,756.98 L562.664,760.802 L561.594,764.63 L560.549,768.465 L559.527,772.307 L558.53,776.155 L557.557,780.009 L556.608,783.869 L555.683,787.735 L554.782,791.607 L553.906,795.484 L553.054,799.366 L552.226,803.254 L551.422,807.147 L550.643,811.045 L549.889,814.948 L549.159,818.856 L548.453,822.767 L547.772,826.684 L547.115,830.604 L546.483,834.529 L545.876,838.457 L545.293,842.389 L544.734,846.325 L544.201,850.264 L543.692,854.206 L543.208,858.152 L542.748,862.1 L542.314,866.051 L541.904,870.005 L541.518,873.962 L541.158,877.92 L540.822,881.881 L540.511,885.844 L540.225,889.809 L539.964,893.775 L539.728,897.743 L539.516,901.713 L539.33,905.683 L539.168,909.655 L539.031,913.628 L538.919,917.601 L538.832,921.575 L538.77,925.55 L538.732,929.525 L538.72,933.5 L1173.5,933.5"/>
</g>

<g fill="#ffffff" fill-opacity="1" stroke="#000000" stroke-opacity="1" stroke-width="1" stroke-linecap="butt" stroke-linejoin="miter" stroke-miterlimit="4.97494" transform="matrix(1,0,0,1,0,0)"
font-family="MS Shell Dlg 2" font-size="104" font-weight="400" font-style="normal" 
>
</g>

<g fill="#ffffff" fill-opacity="1" stroke="#000000" stroke-opacity="1" stroke-width="1" stroke-linecap="butt" stroke-linejoin="miter" stroke-miterlimit="4.97494" transform="matrix(1,0,0,1,0,0)"
font-family="MS Shell Dlg 2" font-size="104" font-weight="400" font-style="normal" 
>
</g>

<g fill="#ffffff" fill-opacity="1" stroke="#000000" stroke-opacity="1" stroke-width="1" stroke-linecap="butt" stroke-linejoin="miter" stroke-miterlimit="4.97494" transform="matrix(1,0,0,1,346,1223)"
font-family="MS Shell Dlg 2" font-size="104" font-weight="400" font-style="normal" 
>
</g>

<g fill="#ffffff" fill-opacity="1" stroke="#000000" stroke-opacity="1" stroke-width="0.01" stroke-linecap="butt" stroke-linejoin="miter" stroke-miterlimit="4.97494" transform="matrix(1,0,0,1,346,1223)"
font-family="Arial" font-size="133" font-weight="400" font-style="normal" 
>
<text fill="#000000" fill-opacity="1" stroke="none" xml:space="preserve" x="0" y="118" font-family="Arial" font-size="133" font-weight="400" font-style="normal" 
 >15%</text>
</g>

<g fill="#ffffff" fill-opacity="1" stroke="#000000" stroke-opacity="1" stroke-width="1" stroke-linecap="butt" stroke-linejoin="miter" stroke-miterlimit="4.97494" transform="matrix(1,0,0,1,346,1223)"
font-family="MS Shell Dlg 2" font-size="104" font-weight="400" font-style="normal" 
>
</g>

<g fill="#ffffff" fill-opacity="1" stroke="#000000" stroke-opacity="1" stroke-width="1" stroke-linecap="butt" stroke-linejoin="miter" stroke-miterlimit="4.97494" transform="matrix(1,0,0,1,0,0)"
font-family="MS Shell Dlg 2" font-size="104" font-weight="400" font-style="normal" 
>
</g>

<g fill="#ffffff" fill-opacity="1" stroke="#000000" stroke-opacity="1" stroke-width="1" stroke-linecap="butt" stroke-linejoin="miter" stroke-miterlimit="4.97494" transform="matrix(1,0,0,1,1761,1166)"
font-family="MS Shell Dlg 2" font-size="104" font-weight="400" font-style="normal" 
>
</g>

<g fill="#ffffff" fill-opacity="1" stroke="#000000" stroke-opacity="1" stroke-width="0.01" stroke-linecap="butt" stroke-linejoin="miter" stroke-miterlimit="4.97494" transform="matrix(1,0,0,1,1761,1166)"
font-family="Arial" font-size="133" font-weight="400" font-style="normal" 
>
<text fill="#000000" fill-opacity="1" stroke="none" xml:space="preserve" x="0" y="118" font-family="Arial" font-size="133" font-weight="400" font-style="normal" 
 >56%</text>
</g>

<g fill="#ffffff" fill-opacity="1" stroke="#000000" stroke-opacity="1" stroke-width="1" stroke-linecap="butt" stroke-linejoin="miter" stroke-miterlimit="4.97494" transform="matrix(1,0,0,1,1761,1166)"
font-family="MS Shell Dlg 2" font-size="104" font-weight="400" font-style="normal" 
>
</g>

<g fill="#ffffff" fill-opacity="1" stroke="#000000" stroke-opacity="1" stroke-width="1" stroke-linecap="butt" stroke-linejoin="miter" stroke-miterlimit="4.97494" transform="matrix(1,0,0,1,0,0)"
font-family="MS Shell Dlg 2" font-size="104" font-weight="400" font-style="normal" 
>
</g>

<g fill="#ffffff" fill-opacity="1" stroke="#000000" stroke-opacity="1" stroke-width="1" stroke-linecap="butt" stroke-linejoin="miter" stroke-miterlimit="4.97494" transform="matrix(1,0,0,1,544,252)"
font-family="MS Shell Dlg 2" font-size="104" font-weight="400" font-style="normal" 
>
</g>

<g fill="#ffffff" fill-opacity="1" stroke="#000000" stroke-opacity="1" stroke-width="0.01" stroke-linecap="butt" stroke-linejoin="miter" stroke-miterlimit="4.97494" transform="matrix(1,0,0,1,544,252)"
font-family="Arial" font-size="133" font-weight="400" font-style="normal" 
>
<text fill="#000000" fill-opacity="1" stroke="none" xml:space="preserve" x="0" y="118" font-family="Arial" font-size="133" font-weight="400" font-style="normal" 
 >28%</text>
</g>

<g fill="#ffffff" fill-opacity="1" stroke="#000000" stroke-opacity="1" stroke-width="1" stroke-linecap="butt" stroke-linejoin="miter" stroke-miterlimit="4.97494" transform="matrix(1,0,0,1,544,252)"
font-family="MS Shell Dlg 2" font-size="104" font-weight="400" font-style="normal" 
>
</g>

<g fill="#ffffff" fill-opacity="1" stroke="#000000" stroke-opacity="1" stroke-width="1" stroke-linecap="butt" stroke-linejoin="miter" stroke-miterlimit="4.97494" transform="matrix(1,0,0,1,0,0)"
font-family="MS Shell Dlg 2" font-size="104" font-weight="400" font-style="normal" 
>
</g>
</g>
</svg>
