<?xml version="1.0" encoding="UTF-8" standalone="no"?>
<svg width="62.0977mm" height="49.3977mm"
 viewBox="0 0 2347 1867"
 xmlns="http://www.w3.org/2000/svg" xmlns:xlink="http://www.w3.org/1999/xlink"  version="1.2" baseProfile="tiny">
<title>Qt SVG Document</title>
<desc>Generated with Qt</desc>
<defs>
</defs>
<g fill="none" stroke="black" stroke-width="1" fill-rule="evenodd" stroke-linecap="square" stroke-linejoin="bevel" >

<g fill="#ffffff" fill-opacity="1" stroke="#000000" stroke-opacity="1" stroke-width="1" stroke-linecap="butt" stroke-linejoin="miter" stroke-miterlimit="4.97494" transform="matrix(1,0,0,1,0,0)"
font-family="MS Shell Dlg 2" font-size="104" font-weight="400" font-style="normal" 
>
</g>

<g fill="#ffffff" fill-opacity="1" stroke="#000000" stroke-opacity="1" stroke-width="1" stroke-linecap="butt" stroke-linejoin="miter" stroke-miterlimit="4.97494" transform="matrix(1,0,0,1,0,0)"
font-family="MS Shell Dlg 2" font-size="104" font-weight="400" font-style="normal" 
>
</g>

<g fill="#ffffff" fill-opacity="1" stroke="#000000" stroke-opacity="1" stroke-width="1" stroke-linecap="butt" stroke-linejoin="miter" stroke-miterlimit="4.97494" transform="matrix(1,0,0,1,0,0)"
font-family="MS Shell Dlg 2" font-size="104" font-weight="400" font-style="normal" 
>
</g>

<g fill="#d53e4f" fill-opacity="1" stroke="none" transform="matrix(1,0,0,1,0,0)"
font-family="MS Shell Dlg 2" font-size="104" font-weight="400" font-style="normal" 
>
<path vector-effect="none" fill-rule="nonzero" d="M1173.5,933.5 L1173.5,1568.28 L1177.48,1568.27 L1181.46,1568.23 L1185.45,1568.17 L1189.43,1568.08 L1193.41,1567.97 L1197.39,1567.83 L1201.37,1567.67 L1205.34,1567.48 L1209.32,1567.27 L1213.29,1567.03 L1217.27,1566.77 L1221.24,1566.48 L1225.21,1566.17 L1229.18,1565.83 L1233.14,1565.47 L1237.11,1565.09 L1241.07,1564.67 L1245.02,1564.24 L1248.98,1563.78 L1252.93,1563.29 L1256.88,1562.78 L1260.83,1562.24 L1264.77,1561.68 L1268.71,1561.1 L1272.64,1560.49 L1276.57,1559.86 L1280.5,1559.2 L1284.43,1558.51 L1288.34,1557.8 L1292.26,1557.07 L1296.17,1556.31 L1300.07,1555.53 L1303.97,1554.73 L1307.87,1553.9 L1311.75,1553.04 L1315.64,1552.16 L1319.52,1551.26 L1323.39,1550.33 L1327.26,1549.38 L1331.12,1548.4 L1334.97,1547.4 L1338.82,1546.37 L1342.66,1545.33 L1346.49,1544.25 L1350.32,1543.16 L1354.14,1542.03 L1357.96,1540.89 L1361.76,1539.72 L1365.56,1538.53 L1369.35,1537.31 L1373.14,1536.07 L1376.91,1534.81 L1380.68,1533.52 L1384.44,1532.21 L1388.19,1530.87 L1391.94,1529.51 L1395.67,1528.13 L1399.4,1526.73 L1403.11,1525.3 L1406.82,1523.84 L1410.52,1522.37 L1414.21,1520.87 L1417.89,1519.35 L1421.56,1517.8 L1425.22,1516.24 L1428.87,1514.65 L1432.51,1513.03 L1436.14,1511.4 L1439.76,1509.74 L1443.37,1508.06 L1446.97,1506.35 L1450.56,1504.63 L1454.14,1502.88 L1457.7,1501.1 L1461.26,1499.31 L1464.8,1497.49 L1468.33,1495.66 L1471.85,1493.8 L1475.36,1491.91 L1478.86,1490.01 L1482.34,1488.08 L1485.82,1486.13 L1489.28,1484.16 L1492.73,1482.17 L1496.16,1480.16 L1499.58,1478.12 L1502.99,1476.07 L1506.39,1473.99 L1509.78,1471.89 L1513.15,1469.77 L1516.5,1467.63 L1519.85,1465.47 L1523.18,1463.28 L1526.49,1461.08 L1529.8,1458.86 L1533.09,1456.61 L1536.36,1454.34 L1539.62,1452.06 L1542.87,1449.75 L1546.1,1447.42 L1549.31,1445.08 L1552.52,1442.71 L1555.7,1440.32 L1558.87,1437.91 L1562.03,1435.49 L1565.17,1433.04 L1568.3,1430.57 L1571.41,1428.09 L1574.5,1425.58 L1577.58,1423.05 L1580.65,1420.51 L1583.69,1417.95 L1586.72,1415.36 L1589.74,1412.76 L1592.74,1410.14 L1595.72,1407.5 L1598.68,1404.84 L1601.63,1402.17 L1604.56,1399.47 L1607.48,1396.76 L1610.38,1394.03 L1613.26,1391.28 L1616.12,1388.51 L1618.96,1385.72 L1621.79,1382.92 L1624.6,1380.1 L1627.4,1377.26 L1630.17,1374.41 L1632.93,1371.53 L1635.67,1368.64 L1638.39,1365.73 L1641.09,1362.81 L1643.77,1359.87 L1646.44,1356.91 L1649.08,1353.93 L1651.71,1350.94 L1654.32,1347.93 L1656.91,1344.91 L1659.48,1341.87 L1662.04,1338.81 L1664.57,1335.74 L1667.08,1332.65 L1669.58,1329.55 L1672.05,1326.43 L1674.51,1323.29 L1676.94,1320.14 L1679.36,1316.98 L1681.75,1313.8 L1684.13,1310.6 L1686.48,1307.39 L1688.82,1304.16 L1691.13,1300.92 L1693.43,1297.67 L1695.7,1294.4 L1697.96,1291.12 L1700.19,1287.82 L1702.4,1284.51 L1704.59,1281.19 L1706.76,1277.85 L1708.91,1274.49 L1711.04,1271.13 L1713.15,1267.75 L1715.24,1264.36 L1717.3,1260.95 L1719.34,1257.54 L1721.37,1254.11 L1723.37,1250.66 L1725.35,1247.21 L1727.3,1243.74 L1729.24,1240.26 L1731.15,1236.77 L1733.04,1233.26 L1734.91,1229.75 L1736.76,1226.22 L1738.58,1222.68 L1740.39,1219.13 L1742.17,1215.57 L1743.93,1211.99 L1745.66,1208.41 L1747.38,1204.82 L1749.07,1201.21 L1750.73,1197.59 L1752.38,1193.97 L1754,1190.33 L1755.6,1186.69 L1757.18,1183.03 L1758.73,1179.36 L1760.26,1175.69 L1761.77,1172 L1763.26,1168.31 L1764.72,1164.6 L1766.16,1160.89 L1767.57,1157.17 L1768.96,1153.44 L1770.33,1149.7 L1771.67,1145.95 L1772.99,1142.19 L1774.29,1138.43 L1775.57,1134.65 L1776.82,1130.87 L1778.04,1127.08 L1779.24,1123.29 L1780.42,1119.48 L1781.58,1115.67 L1782.71,1111.86 L1783.82,1108.03 L1784.9,1104.2 L1785.96,1100.36 L1786.99,1096.51 L1788,1092.66 L1788.99,1088.8 L1789.95,1084.94 L1790.89,1081.07 L1791.8,1077.19 L1792.69,1073.31 L1793.56,1069.43 L1794.4,1065.53 L1795.21,1061.64 L1796,1057.73 L1796.77,1053.83 L1797.51,1049.91 L1798.23,1046 L1798.93,1042.08 L1799.59,1038.15 L1800.24,1034.22 L1800.86,1030.29 L1801.45,1026.35 L1802.02,1022.41 L1802.57,1018.46 L1803.09,1014.52 L1803.58,1010.57 L1804.06,1006.61 L1804.5,1002.65 L1804.92,998.695 L1805.32,994.732 L1805.69,990.768 L1806.04,986.801 L1806.36,982.832 L1806.66,978.861 L1806.93,974.888 L1807.18,970.914 L1807.4,966.938 L1807.6,962.961 L1807.77,958.982 L1807.92,955.003 L1808.04,951.023 L1808.14,947.042 L1808.21,943.061 L1808.26,939.079 L1808.28,935.097 L1808.28,931.115 L1808.25,927.133 L1808.2,923.151 L1808.12,919.17 L1808.02,915.189 L1807.89,911.209 L1807.74,907.23 L1807.56,903.252 L1807.36,899.275 L1807.13,895.3 L1806.88,891.325 L1806.6,887.353 L1806.3,883.383 L1805.97,879.414 L1805.62,875.447 L1805.24,871.483 L1804.84,867.521 L1804.42,863.562 L1803.96,859.606 L1803.49,855.652 L1802.99,851.702 L1802.46,847.755 L1801.91,843.811 L1801.34,839.871 L1800.74,835.934 L1800.11,832.001 L1799.46,828.072 L1798.79,824.148 L1798.09,820.227 L1797.37,816.311 L1796.62,812.4 L1795.85,808.494 L1795.05,804.592 L1794.23,800.696 L1793.39,796.804 L1792.52,792.918 L1791.62,789.038 L1790.7,785.163 L1789.76,781.294 L1788.8,777.432 L1787.8,773.575 L1786.79,769.724 L1785.75,765.88 L1784.69,762.043 L1783.6,758.212 L1782.49,754.389 L1781.35,750.572 L1780.19,746.762 L1779.01,742.96 L1777.8,739.166 L1776.57,735.379 L1775.32,731.599 L1774.04,727.828 L1772.74,724.065 L1771.41,720.31 L1770.06,716.564 L1768.69,712.826 L1767.29,709.096 L1765.87,705.376 L1764.43,701.664 L1762.96,697.962 L1761.47,694.269 L1759.96,690.585 L1758.43,686.911 L1756.87,683.246 L1755.29,679.592 L1753.68,675.947 L1752.06,672.313 L1750.41,668.689 L1748.73,665.075 L1747.04,661.472 L1745.32,657.879 L1743.58,654.297 L1741.82,650.727 L1740.03,647.167 L1738.23,643.619 L1736.4,640.082 L1734.54,636.557 L1732.67,633.043 L1730.77,629.541 L1728.86,626.051 L1726.92,622.574 L1724.96,619.108 L1722.97,615.655 L1720.97,612.214 L1718.94,608.786 L1716.89,605.371 L1714.83,601.969 L1712.73,598.58 L1710.62,595.204 L1708.49,591.841 L1706.34,588.492 L1704.16,585.156 L1701.97,581.834 L1699.75,578.526 L1697.51,575.231 L1695.25,571.951 L1692.98,568.685 L1690.68,565.434 L1688.36,562.197 L1686.02,558.974 L1683.66,555.767 L1681.28,552.574 L1678.88,549.396 L1676.46,546.233 L1674.02,543.086 L1671.56,539.954 L1669.08,536.837 L1666.59,533.736 L1664.07,530.651 L1661.53,527.581 L1658.98,524.528 L1656.4,521.49 L1653.81,518.469 L1651.19,515.464 L1648.56,512.476 L1645.91,509.504 L1643.24,506.549 L1640.56,503.611 L1637.85,500.689 L1635.13,497.785 L1632.38,494.897 L1629.62,492.028 L1626.84,489.175 L1624.05,486.34 L1621.23,483.522 L1618.4,480.722 L1615.55,477.94 L1612.69,475.176 L1609.8,472.43 L1606.9,469.702 L1603.98,466.993 L1601.05,464.302 L1598.1,461.629 L1595.13,458.974 L1592.14,456.339 L1589.14,453.722 L1586.12,451.124 L1583.09,448.545 L1580.04,445.985 L1576.97,443.445 L1573.89,440.923 L1570.79,438.421 L1567.68,435.939 L1564.55,433.476 L1561.41,431.033 L1558.25,428.609 L1555.07,426.205 L1551.88,423.822 L1548.68,421.458 L1545.46,419.115 L1542.22,416.792 L1538.98,414.489 L1535.71,412.206 L1532.44,409.944 L1529.14,407.703 L1525.84,405.482 L1522.52,403.282 L1519.19,401.103 L1515.84,398.945 L1512.48,396.808 L1509.11,394.693 L1505.72,392.598 L1502.32,390.524 L1498.91,388.472 L1495.48,386.442 L1492.04,384.433 L1488.59,382.445 L1485.13,380.48 L1481.66,378.536 L1478.17,376.613 L1474.67,374.713 L1471.16,372.835 L1467.63,370.979 L1464.1,369.145 L1460.55,367.333 L1457,365.543 L1453.43,363.776 L1449.85,362.031 L1446.26,360.309 L1442.66,358.609 L1439.05,356.932 L1435.42,355.277 L1431.79,353.646 L1428.15,352.037 L1424.5,350.451 L1420.83,348.888 L1417.16,347.348 L1413.48,345.831 L1409.79,344.337 L1406.09,342.866 L1402.38,341.419 L1398.66,339.995 L1394.93,338.594 L1391.2,337.217 L1387.45,335.863 L1383.7,334.532 L1379.94,333.226 L1376.17,331.942 L1372.39,330.683 L1368.6,329.447 L1364.81,328.235 L1361.01,327.047 L1357.2,325.882 L1353.39,324.742 L1349.56,323.626 L1345.74,322.533 L1341.9,321.465 L1338.06,320.42 L1334.21,319.4 L1330.35,318.404 L1326.49,317.432 L1322.62,316.485 L1318.75,315.561 L1314.87,314.662 L1310.99,313.788 L1307.1,312.937 L1303.2,312.112 L1299.3,311.31 L1295.39,310.533 L1291.48,309.781 L1287.57,309.053 L1283.65,308.35 L1279.73,307.671 L1275.8,307.017 L1271.87,306.388 L1267.93,305.783 L1263.99,305.203 L1260.05,304.648 L1256.1,304.117 L1252.15,303.611 L1248.2,303.13 L1244.24,302.674 L1240.28,302.243 L1236.32,301.836 L1232.36,301.455 L1228.39,301.098 L1224.42,300.766 L1220.45,300.459 L1216.48,300.177 L1212.51,299.92 L1208.53,299.687 L1204.56,299.48 L1200.58,299.298 L1196.6,299.14 L1192.62,299.008 L1188.64,298.901 L1184.66,298.818 L1180.68,298.761 L1176.69,298.728 L1172.71,298.72 L1168.73,298.738 L1164.75,298.78 L1160.77,298.848 L1156.79,298.94 L1152.81,299.057 L1148.83,299.2 L1144.85,299.367 L1140.87,299.559 L1136.89,299.776 L1132.92,300.018 L1128.95,300.286 L1124.97,300.577 L1121.01,300.894 L1117.04,301.236 L1113.07,301.603 L1109.11,301.994 L1105.15,302.411 L1101.19,302.852 L1097.24,303.318 L1093.29,303.809 L1089.34,304.324 L1085.39,304.864 L1081.45,305.43 L1173.5,933.5"/>
</g>

<g fill="#ffffff" fill-opacity="1" stroke="#000000" stroke-opacity="1" stroke-width="1" stroke-linecap="butt" stroke-linejoin="miter" stroke-miterlimit="4.97494" transform="matrix(1,0,0,1,0,0)"
font-family="MS Shell Dlg 2" font-size="104" font-weight="400" font-style="normal" 
>
</g>

<g fill="#ffffff" fill-opacity="1" stroke="#000000" stroke-opacity="1" stroke-width="1" stroke-linecap="butt" stroke-linejoin="miter" stroke-miterlimit="4.97494" transform="matrix(1,0,0,1,0,0)"
font-family="MS Shell Dlg 2" font-size="104" font-weight="400" font-style="normal" 
>
</g>

<g fill="none" stroke="#000000" stroke-opacity="1" stroke-width="13" stroke-linecap="butt" stroke-linejoin="miter" stroke-miterlimit="4.97494" transform="matrix(1,0,0,1,0,0)"
font-family="MS Shell Dlg 2" font-size="104" font-weight="400" font-style="normal" 
>
<path vector-effect="none" fill-rule="nonzero" d="M1173.5,933.5 L1173.5,1568.28 L1177.48,1568.27 L1181.46,1568.23 L1185.45,1568.17 L1189.43,1568.08 L1193.41,1567.97 L1197.39,1567.83 L1201.37,1567.67 L1205.34,1567.48 L1209.32,1567.27 L1213.29,1567.03 L1217.27,1566.77 L1221.24,1566.48 L1225.21,1566.17 L1229.18,1565.83 L1233.14,1565.47 L1237.11,1565.09 L1241.07,1564.67 L1245.02,1564.24 L1248.98,1563.78 L1252.93,1563.29 L1256.88,1562.78 L1260.83,1562.24 L1264.77,1561.68 L1268.71,1561.1 L1272.64,1560.49 L1276.57,1559.86 L1280.5,1559.2 L1284.43,1558.51 L1288.34,1557.8 L1292.26,1557.07 L1296.17,1556.31 L1300.07,1555.53 L1303.97,1554.73 L1307.87,1553.9 L1311.75,1553.04 L1315.64,1552.16 L1319.52,1551.26 L1323.39,1550.33 L1327.26,1549.38 L1331.12,1548.4 L1334.97,1547.4 L1338.82,1546.37 L1342.66,1545.33 L1346.49,1544.25 L1350.32,1543.16 L1354.14,1542.03 L1357.96,1540.89 L1361.76,1539.72 L1365.56,1538.53 L1369.35,1537.31 L1373.14,1536.07 L1376.91,1534.81 L1380.68,1533.52 L1384.44,1532.21 L1388.19,1530.87 L1391.94,1529.51 L1395.67,1528.13 L1399.4,1526.73 L1403.11,1525.3 L1406.82,1523.84 L1410.52,1522.37 L1414.21,1520.87 L1417.89,1519.35 L1421.56,1517.8 L1425.22,1516.24 L1428.87,1514.65 L1432.51,1513.03 L1436.14,1511.4 L1439.76,1509.74 L1443.37,1508.06 L1446.97,1506.35 L1450.56,1504.63 L1454.14,1502.88 L1457.7,1501.1 L1461.26,1499.31 L1464.8,1497.49 L1468.33,1495.66 L1471.85,1493.8 L1475.36,1491.91 L1478.86,1490.01 L1482.34,1488.08 L1485.82,1486.13 L1489.28,1484.16 L1492.73,1482.17 L1496.16,1480.16 L1499.58,1478.12 L1502.99,1476.07 L1506.39,1473.99 L1509.78,1471.89 L1513.15,1469.77 L1516.5,1467.63 L1519.85,1465.47 L1523.18,1463.28 L1526.49,1461.08 L1529.8,1458.86 L1533.09,1456.61 L1536.36,1454.34 L1539.62,1452.06 L1542.87,1449.75 L1546.1,1447.42 L1549.31,1445.08 L1552.52,1442.71 L1555.7,1440.32 L1558.87,1437.91 L1562.03,1435.49 L1565.17,1433.04 L1568.3,1430.57 L1571.41,1428.09 L1574.5,1425.58 L1577.58,1423.05 L1580.65,1420.51 L1583.69,1417.95 L1586.72,1415.36 L1589.74,1412.76 L1592.74,1410.14 L1595.72,1407.5 L1598.68,1404.84 L1601.63,1402.17 L1604.56,1399.47 L1607.48,1396.76 L1610.38,1394.03 L1613.26,1391.28 L1616.12,1388.51 L1618.96,1385.72 L1621.79,1382.92 L1624.6,1380.1 L1627.4,1377.26 L1630.17,1374.41 L1632.93,1371.53 L1635.67,1368.64 L1638.39,1365.73 L1641.09,1362.81 L1643.77,1359.87 L1646.44,1356.91 L1649.08,1353.93 L1651.71,1350.94 L1654.32,1347.93 L1656.91,1344.91 L1659.48,1341.87 L1662.04,1338.81 L1664.57,1335.74 L1667.08,1332.65 L1669.58,1329.55 L1672.05,1326.43 L1674.51,1323.29 L1676.94,1320.14 L1679.36,1316.98 L1681.75,1313.8 L1684.13,1310.6 L1686.48,1307.39 L1688.82,1304.16 L1691.13,1300.92 L1693.43,1297.67 L1695.7,1294.4 L1697.96,1291.12 L1700.19,1287.82 L1702.4,1284.51 L1704.59,1281.19 L1706.76,1277.85 L1708.91,1274.49 L1711.04,1271.13 L1713.15,1267.75 L1715.24,1264.36 L1717.3,1260.95 L1719.34,1257.54 L1721.37,1254.11 L1723.37,1250.66 L1725.35,1247.21 L1727.3,1243.74 L1729.24,1240.26 L1731.15,1236.77 L1733.04,1233.26 L1734.91,1229.75 L1736.76,1226.22 L1738.58,1222.68 L1740.39,1219.13 L1742.17,1215.57 L1743.93,1211.99 L1745.66,1208.41 L1747.38,1204.82 L1749.07,1201.21 L1750.73,1197.59 L1752.38,1193.97 L1754,1190.33 L1755.6,1186.69 L1757.18,1183.03 L1758.73,1179.36 L1760.26,1175.69 L1761.77,1172 L1763.26,1168.31 L1764.72,1164.6 L1766.16,1160.89 L1767.57,1157.17 L1768.96,1153.44 L1770.33,1149.7 L1771.67,1145.95 L1772.99,1142.19 L1774.29,1138.43 L1775.57,1134.65 L1776.82,1130.87 L1778.04,1127.08 L1779.24,1123.29 L1780.42,1119.48 L1781.58,1115.67 L1782.71,1111.86 L1783.82,1108.03 L1784.9,1104.2 L1785.96,1100.36 L1786.99,1096.51 L1788,1092.66 L1788.99,1088.8 L1789.95,1084.94 L1790.89,1081.07 L1791.8,1077.19 L1792.69,1073.31 L1793.56,1069.43 L1794.4,1065.53 L1795.21,1061.64 L1796,1057.73 L1796.77,1053.83 L1797.51,1049.91 L1798.23,1046 L1798.93,1042.08 L1799.59,1038.15 L1800.24,1034.22 L1800.86,1030.29 L1801.45,1026.35 L1802.02,1022.41 L1802.57,1018.46 L1803.09,1014.52 L1803.58,1010.57 L1804.06,1006.61 L1804.5,1002.65 L1804.92,998.695 L1805.32,994.732 L1805.69,990.768 L1806.04,986.801 L1806.36,982.832 L1806.66,978.861 L1806.93,974.888 L1807.18,970.914 L1807.4,966.938 L1807.6,962.961 L1807.77,958.982 L1807.92,955.003 L1808.04,951.023 L1808.14,947.042 L1808.21,943.061 L1808.26,939.079 L1808.28,935.097 L1808.28,931.115 L1808.25,927.133 L1808.2,923.151 L1808.12,919.17 L1808.02,915.189 L1807.89,911.209 L1807.74,907.23 L1807.56,903.252 L1807.36,899.275 L1807.13,895.3 L1806.88,891.325 L1806.6,887.353 L1806.3,883.383 L1805.97,879.414 L1805.62,875.447 L1805.24,871.483 L1804.84,867.521 L1804.42,863.562 L1803.96,859.606 L1803.49,855.652 L1802.99,851.702 L1802.46,847.755 L1801.91,843.811 L1801.34,839.871 L1800.74,835.934 L1800.11,832.001 L1799.46,828.072 L1798.79,824.148 L1798.09,820.227 L1797.37,816.311 L1796.62,812.4 L1795.85,808.494 L1795.05,804.592 L1794.23,800.696 L1793.39,796.804 L1792.52,792.918 L1791.62,789.038 L1790.7,785.163 L1789.76,781.294 L1788.8,777.432 L1787.8,773.575 L1786.79,769.724 L1785.75,765.88 L1784.69,762.043 L1783.6,758.212 L1782.49,754.389 L1781.35,750.572 L1780.19,746.762 L1779.01,742.96 L1777.8,739.166 L1776.57,735.379 L1775.32,731.599 L1774.04,727.828 L1772.74,724.065 L1771.41,720.31 L1770.06,716.564 L1768.69,712.826 L1767.29,709.096 L1765.87,705.376 L1764.43,701.664 L1762.96,697.962 L1761.47,694.269 L1759.96,690.585 L1758.43,686.911 L1756.87,683.246 L1755.29,679.592 L1753.68,675.947 L1752.06,672.313 L1750.41,668.689 L1748.73,665.075 L1747.04,661.472 L1745.32,657.879 L1743.58,654.297 L1741.82,650.727 L1740.03,647.167 L1738.23,643.619 L1736.4,640.082 L1734.54,636.557 L1732.67,633.043 L1730.77,629.541 L1728.86,626.051 L1726.92,622.574 L1724.96,619.108 L1722.97,615.655 L1720.97,612.214 L1718.94,608.786 L1716.89,605.371 L1714.83,601.969 L1712.73,598.58 L1710.62,595.204 L1708.49,591.841 L1706.34,588.492 L1704.16,585.156 L1701.97,581.834 L1699.75,578.526 L1697.51,575.231 L1695.25,571.951 L1692.98,568.685 L1690.68,565.434 L1688.36,562.197 L1686.02,558.974 L1683.66,555.767 L1681.28,552.574 L1678.88,549.396 L1676.46,546.233 L1674.02,543.086 L1671.56,539.954 L1669.08,536.837 L1666.59,533.736 L1664.07,530.651 L1661.53,527.581 L1658.98,524.528 L1656.4,521.49 L1653.81,518.469 L1651.19,515.464 L1648.56,512.476 L1645.91,509.504 L1643.24,506.549 L1640.56,503.611 L1637.85,500.689 L1635.13,497.785 L1632.38,494.897 L1629.62,492.028 L1626.84,489.175 L1624.05,486.34 L1621.23,483.522 L1618.4,480.722 L1615.55,477.94 L1612.69,475.176 L1609.8,472.43 L1606.9,469.702 L1603.98,466.993 L1601.05,464.302 L1598.1,461.629 L1595.13,458.974 L1592.14,456.339 L1589.14,453.722 L1586.12,451.124 L1583.09,448.545 L1580.04,445.985 L1576.97,443.445 L1573.89,440.923 L1570.79,438.421 L1567.68,435.939 L1564.55,433.476 L1561.41,431.033 L1558.25,428.609 L1555.07,426.205 L1551.88,423.822 L1548.68,421.458 L1545.46,419.115 L1542.22,416.792 L1538.98,414.489 L1535.71,412.206 L1532.44,409.944 L1529.14,407.703 L1525.84,405.482 L1522.52,403.282 L1519.19,401.103 L1515.84,398.945 L1512.48,396.808 L1509.11,394.693 L1505.72,392.598 L1502.32,390.524 L1498.91,388.472 L1495.48,386.442 L1492.04,384.433 L1488.59,382.445 L1485.13,380.48 L1481.66,378.536 L1478.17,376.613 L1474.67,374.713 L1471.16,372.835 L1467.63,370.979 L1464.1,369.145 L1460.55,367.333 L1457,365.543 L1453.43,363.776 L1449.85,362.031 L1446.26,360.309 L1442.66,358.609 L1439.05,356.932 L1435.42,355.277 L1431.79,353.646 L1428.15,352.037 L1424.5,350.451 L1420.83,348.888 L1417.16,347.348 L1413.48,345.831 L1409.79,344.337 L1406.09,342.866 L1402.38,341.419 L1398.66,339.995 L1394.93,338.594 L1391.2,337.217 L1387.45,335.863 L1383.7,334.532 L1379.94,333.226 L1376.17,331.942 L1372.39,330.683 L1368.6,329.447 L1364.81,328.235 L1361.01,327.047 L1357.2,325.882 L1353.39,324.742 L1349.56,323.626 L1345.74,322.533 L1341.9,321.465 L1338.06,320.42 L1334.21,319.4 L1330.35,318.404 L1326.49,317.432 L1322.62,316.485 L1318.75,315.561 L1314.87,314.662 L1310.99,313.788 L1307.1,312.937 L1303.2,312.112 L1299.3,311.31 L1295.39,310.533 L1291.48,309.781 L1287.57,309.053 L1283.65,308.35 L1279.73,307.671 L1275.8,307.017 L1271.87,306.388 L1267.93,305.783 L1263.99,305.203 L1260.05,304.648 L1256.1,304.117 L1252.15,303.611 L1248.2,303.13 L1244.24,302.674 L1240.28,302.243 L1236.32,301.836 L1232.36,301.455 L1228.39,301.098 L1224.42,300.766 L1220.45,300.459 L1216.48,300.177 L1212.51,299.92 L1208.53,299.687 L1204.56,299.48 L1200.58,299.298 L1196.6,299.14 L1192.62,299.008 L1188.64,298.901 L1184.66,298.818 L1180.68,298.761 L1176.69,298.728 L1172.71,298.72 L1168.73,298.738 L1164.75,298.78 L1160.77,298.848 L1156.79,298.94 L1152.81,299.057 L1148.83,299.2 L1144.85,299.367 L1140.87,299.559 L1136.89,299.776 L1132.92,300.018 L1128.95,300.286 L1124.97,300.577 L1121.01,300.894 L1117.04,301.236 L1113.07,301.603 L1109.11,301.994 L1105.15,302.411 L1101.19,302.852 L1097.24,303.318 L1093.29,303.809 L1089.34,304.324 L1085.39,304.864 L1081.45,305.43 L1173.5,933.5"/>
</g>

<g fill="#ffffff" fill-opacity="1" stroke="#000000" stroke-opacity="1" stroke-width="1" stroke-linecap="butt" stroke-linejoin="miter" stroke-miterlimit="4.97494" transform="matrix(1,0,0,1,0,0)"
font-family="MS Shell Dlg 2" font-size="104" font-weight="400" font-style="normal" 
>
</g>

<g fill="#ffffff" fill-opacity="1" stroke="#000000" stroke-opacity="1" stroke-width="1" stroke-linecap="butt" stroke-linejoin="miter" stroke-miterlimit="4.97494" transform="matrix(1,0,0,1,0,0)"
font-family="MS Shell Dlg 2" font-size="104" font-weight="400" font-style="normal" 
>
</g>

<g fill="#fec270" fill-opacity="1" stroke="none" transform="matrix(1,0,0,1,0,0)"
font-family="MS Shell Dlg 2" font-size="104" font-weight="400" font-style="normal" 
>
<path vector-effect="none" fill-rule="nonzero" d="M1173.5,933.5 L1081.45,305.43 L1077.52,306.018 L1073.6,306.63 L1069.68,307.267 L1065.77,307.929 L1061.85,308.615 L1057.95,309.326 L1054.05,310.061 L1050.15,310.82 L1046.25,311.604 L1042.37,312.412 L1038.48,313.245 L1034.61,314.102 L1030.73,314.983 L1026.87,315.888 L1023.01,316.817 L1019.15,317.771 L1015.3,318.748 L1011.46,319.75 L1007.63,320.775 L1003.8,321.825 L999.973,322.899 L996.157,323.996 L992.348,325.117 L988.546,326.262 L984.751,327.431 L980.963,328.624 L977.183,329.84 L973.411,331.08 L969.646,332.343 L965.89,333.63 L962.141,334.941 L958.401,336.275 L954.669,337.632 L950.946,339.012 L947.232,340.416 L943.526,341.843 L939.83,343.293 L936.142,344.767 L932.464,346.263 L928.795,347.782 L925.136,349.324 L921.487,350.89 L917.847,352.477 L914.218,354.088 L910.598,355.721 L906.989,357.377 L903.39,359.056 L899.802,360.757 L896.225,362.48 L892.658,364.225 L889.102,365.993 L885.558,367.784 L882.025,369.596 L878.503,371.43 L874.993,373.287 L871.494,375.165 L868.007,377.065 L864.533,378.987 L861.07,380.93 L857.619,382.896 L854.181,384.882 L850.756,386.891 L847.343,388.92 L843.943,390.971 L840.555,393.043 L837.181,395.137 L833.82,397.251 L830.472,399.386 L827.137,401.543 L823.817,403.72 L820.509,405.918 L817.216,408.136 L813.937,410.375 L810.671,412.634 L807.42,414.914 L804.183,417.214 L800.961,419.535 L797.753,421.875 L794.56,424.236 L791.382,426.616 L788.218,429.016 L785.07,431.436 L781.937,433.876 L778.819,436.335 L775.717,438.814 L772.63,441.312 L769.559,443.829 L766.504,446.366 L763.465,448.921 L760.441,451.496 L757.434,454.089 L754.443,456.701 L751.469,459.332 L748.511,461.981 L745.57,464.649 L742.645,467.335 L739.738,470.039 L736.847,472.762 L733.973,475.502 L731.117,478.261 L728.278,481.037 L725.456,483.831 L722.652,486.642 L719.866,489.471 L717.097,492.318 L714.346,495.181 L711.613,498.062 L708.898,500.96 L706.202,503.875 L703.523,506.806 L700.863,509.755 L698.222,512.719 L695.599,515.701 L692.995,518.698 L690.409,521.712 L687.843,524.742 L685.295,527.788 L682.767,530.85 L680.258,533.928 L677.768,537.021 L675.297,540.13 L672.847,543.254 L670.415,546.394 L668.003,549.548 L665.612,552.718 L663.239,555.903 L660.887,559.102 L658.555,562.316 L656.244,565.544 L653.952,568.787 L651.681,572.044 L649.43,575.316 L647.199,578.601 L644.99,581.9 L642.801,585.213 L640.632,588.54 L638.485,591.88 L636.358,595.233 L634.253,598.6 L632.168,601.98 L630.105,605.373 L628.063,608.778 L626.042,612.197 L624.043,615.627 L622.066,619.071 L620.109,622.526 L618.175,625.994 L616.262,629.474 L614.371,632.966 L612.502,636.469 L610.655,639.984 L608.83,643.511 L607.027,647.049 L605.246,650.598 L603.488,654.158 L601.751,657.73 L600.038,661.312 L598.346,664.904 L596.677,668.507 L595.031,672.121 L593.407,675.745 L591.806,679.378 L590.228,683.022 L588.672,686.676 L587.14,690.339 L585.63,694.012 L584.144,697.694 L582.68,701.385 L581.24,705.085 L579.822,708.795 L578.428,712.513 L577.058,716.24 L575.71,719.975 L574.386,723.719 L573.086,727.471 L571.808,731.23 L570.555,734.998 L569.325,738.774 L568.119,742.557 L566.936,746.348 L565.777,750.146 L564.642,753.951 L563.531,757.763 L562.444,761.582 L561.38,765.408 L560.341,769.24 L559.325,773.079 L558.334,776.924 L557.366,780.776 L556.423,784.633 L555.504,788.496 L554.609,792.365 L553.738,796.239 L552.891,800.118 L552.069,804.003 L551.271,807.893 L550.498,811.788 L549.749,815.687 L549.024,819.592 L548.323,823.5 L547.648,827.413 L546.996,831.33 L546.369,835.251 L545.767,839.176 L545.189,843.105 L544.636,847.037 L544.108,850.973 L543.604,854.911 L1173.5,933.5"/>
</g>

<g fill="#ffffff" fill-opacity="1" stroke="#000000" stroke-opacity="1" stroke-width="1" stroke-linecap="butt" stroke-linejoin="miter" stroke-miterlimit="4.97494" transform="matrix(1,0,0,1,0,0)"
font-family="MS Shell Dlg 2" font-size="104" font-weight="400" font-style="normal" 
>
</g>

<g fill="#ffffff" fill-opacity="1" stroke="#000000" stroke-opacity="1" stroke-width="1" stroke-linecap="butt" stroke-linejoin="miter" stroke-miterlimit="4.97494" transform="matrix(1,0,0,1,0,0)"
font-family="MS Shell Dlg 2" font-size="104" font-weight="400" font-style="normal" 
>
</g>

<g fill="none" stroke="#000000" stroke-opacity="1" stroke-width="13" stroke-linecap="butt" stroke-linejoin="miter" stroke-miterlimit="4.97494" transform="matrix(1,0,0,1,0,0)"
font-family="MS Shell Dlg 2" font-size="104" font-weight="400" font-style="normal" 
>
<path vector-effect="none" fill-rule="nonzero" d="M1173.5,933.5 L1081.45,305.43 L1077.52,306.018 L1073.6,306.63 L1069.68,307.267 L1065.77,307.929 L1061.85,308.615 L1057.95,309.326 L1054.05,310.061 L1050.15,310.82 L1046.25,311.604 L1042.37,312.412 L1038.48,313.245 L1034.61,314.102 L1030.73,314.983 L1026.87,315.888 L1023.01,316.817 L1019.15,317.771 L1015.3,318.748 L1011.46,319.75 L1007.63,320.775 L1003.8,321.825 L999.973,322.899 L996.157,323.996 L992.348,325.117 L988.546,326.262 L984.751,327.431 L980.963,328.624 L977.183,329.84 L973.411,331.08 L969.646,332.343 L965.89,333.63 L962.141,334.941 L958.401,336.275 L954.669,337.632 L950.946,339.012 L947.232,340.416 L943.526,341.843 L939.83,343.293 L936.142,344.767 L932.464,346.263 L928.795,347.782 L925.136,349.324 L921.487,350.89 L917.847,352.477 L914.218,354.088 L910.598,355.721 L906.989,357.377 L903.39,359.056 L899.802,360.757 L896.225,362.48 L892.658,364.225 L889.102,365.993 L885.558,367.784 L882.025,369.596 L878.503,371.43 L874.993,373.287 L871.494,375.165 L868.007,377.065 L864.533,378.987 L861.07,380.93 L857.619,382.896 L854.181,384.882 L850.756,386.891 L847.343,388.92 L843.943,390.971 L840.555,393.043 L837.181,395.137 L833.82,397.251 L830.472,399.386 L827.137,401.543 L823.817,403.72 L820.509,405.918 L817.216,408.136 L813.937,410.375 L810.671,412.634 L807.42,414.914 L804.183,417.214 L800.961,419.535 L797.753,421.875 L794.56,424.236 L791.382,426.616 L788.218,429.016 L785.07,431.436 L781.937,433.876 L778.819,436.335 L775.717,438.814 L772.63,441.312 L769.559,443.829 L766.504,446.366 L763.465,448.921 L760.441,451.496 L757.434,454.089 L754.443,456.701 L751.469,459.332 L748.511,461.981 L745.57,464.649 L742.645,467.335 L739.738,470.039 L736.847,472.762 L733.973,475.502 L731.117,478.261 L728.278,481.037 L725.456,483.831 L722.652,486.642 L719.866,489.471 L717.097,492.318 L714.346,495.181 L711.613,498.062 L708.898,500.96 L706.202,503.875 L703.523,506.806 L700.863,509.755 L698.222,512.719 L695.599,515.701 L692.995,518.698 L690.409,521.712 L687.843,524.742 L685.295,527.788 L682.767,530.85 L680.258,533.928 L677.768,537.021 L675.297,540.13 L672.847,543.254 L670.415,546.394 L668.003,549.548 L665.612,552.718 L663.239,555.903 L660.887,559.102 L658.555,562.316 L656.244,565.544 L653.952,568.787 L651.681,572.044 L649.43,575.316 L647.199,578.601 L644.99,581.9 L642.801,585.213 L640.632,588.54 L638.485,591.88 L636.358,595.233 L634.253,598.6 L632.168,601.98 L630.105,605.373 L628.063,608.778 L626.042,612.197 L624.043,615.627 L622.066,619.071 L620.109,622.526 L618.175,625.994 L616.262,629.474 L614.371,632.966 L612.502,636.469 L610.655,639.984 L608.83,643.511 L607.027,647.049 L605.246,650.598 L603.488,654.158 L601.751,657.73 L600.038,661.312 L598.346,664.904 L596.677,668.507 L595.031,672.121 L593.407,675.745 L591.806,679.378 L590.228,683.022 L588.672,686.676 L587.14,690.339 L585.63,694.012 L584.144,697.694 L582.68,701.385 L581.24,705.085 L579.822,708.795 L578.428,712.513 L577.058,716.24 L575.71,719.975 L574.386,723.719 L573.086,727.471 L571.808,731.23 L570.555,734.998 L569.325,738.774 L568.119,742.557 L566.936,746.348 L565.777,750.146 L564.642,753.951 L563.531,757.763 L562.444,761.582 L561.38,765.408 L560.341,769.24 L559.325,773.079 L558.334,776.924 L557.366,780.776 L556.423,784.633 L555.504,788.496 L554.609,792.365 L553.738,796.239 L552.891,800.118 L552.069,804.003 L551.271,807.893 L550.498,811.788 L549.749,815.687 L549.024,819.592 L548.323,823.5 L547.648,827.413 L546.996,831.33 L546.369,835.251 L545.767,839.176 L545.189,843.105 L544.636,847.037 L544.108,850.973 L543.604,854.911 L1173.5,933.5"/>
</g>

<g fill="#ffffff" fill-opacity="1" stroke="#000000" stroke-opacity="1" stroke-width="1" stroke-linecap="butt" stroke-linejoin="miter" stroke-miterlimit="4.97494" transform="matrix(1,0,0,1,0,0)"
font-family="MS Shell Dlg 2" font-size="104" font-weight="400" font-style="normal" 
>
</g>

<g fill="#ffffff" fill-opacity="1" stroke="#000000" stroke-opacity="1" stroke-width="1" stroke-linecap="butt" stroke-linejoin="miter" stroke-miterlimit="4.97494" transform="matrix(1,0,0,1,0,0)"
font-family="MS Shell Dlg 2" font-size="104" font-weight="400" font-style="normal" 
>
</g>

<g fill="#c1e7a2" fill-opacity="1" stroke="none" transform="matrix(1,0,0,1,0,0)"
font-family="MS Shell Dlg 2" font-size="104" font-weight="400" font-style="normal" 
>
<path vector-effect="none" fill-rule="nonzero" d="M1173.5,933.5 L543.604,854.911 L543.123,858.864 L542.667,862.819 L542.236,866.776 L541.83,870.737 L541.449,874.7 L541.093,878.665 L540.761,882.633 L540.455,886.602 L540.173,890.573 L539.916,894.546 L539.685,898.521 L539.478,902.496 L539.296,906.473 L539.139,910.452 L539.006,914.431 L538.899,918.41 L538.817,922.391 L538.76,926.372 L538.728,930.353 L538.721,934.334 L538.738,938.315 L538.781,942.296 L538.849,946.277 L538.941,950.257 L539.059,954.236 L539.201,958.215 L539.369,962.193 L539.561,966.169 L539.779,970.145 L540.021,974.118 L540.288,978.091 L540.58,982.061 L540.897,986.03 L541.239,989.996 L541.606,993.961 L541.998,997.922 L542.414,1001.88 L542.855,1005.84 L543.321,1009.79 L543.812,1013.74 L544.328,1017.69 L544.868,1021.64 L545.433,1025.58 L546.023,1029.51 L546.638,1033.45 L547.277,1037.38 L547.941,1041.3 L548.629,1045.22 L549.342,1049.14 L550.08,1053.05 L550.842,1056.96 L551.628,1060.86 L552.439,1064.76 L553.275,1068.65 L554.135,1072.54 L555.019,1076.42 L555.927,1080.3 L556.86,1084.17 L557.817,1088.03 L558.799,1091.89 L559.804,1095.74 L560.834,1099.59 L561.888,1103.43 L562.965,1107.26 L564.067,1111.09 L565.193,1114.91 L566.343,1118.72 L567.516,1122.52 L568.714,1126.32 L569.935,1130.11 L571.18,1133.89 L572.448,1137.66 L573.741,1141.43 L575.057,1145.19 L576.396,1148.94 L577.759,1152.68 L579.145,1156.41 L580.555,1160.13 L581.988,1163.85 L583.444,1167.55 L584.924,1171.25 L586.427,1174.93 L587.952,1178.61 L589.501,1182.28 L591.073,1185.94 L592.668,1189.58 L594.285,1193.22 L595.925,1196.85 L597.588,1200.47 L599.274,1204.07 L600.982,1207.67 L602.713,1211.26 L604.466,1214.83 L606.242,1218.39 L608.04,1221.95 L609.86,1225.49 L611.703,1229.02 L613.567,1232.53 L615.454,1236.04 L617.362,1239.53 L619.292,1243.01 L621.244,1246.48 L623.218,1249.94 L625.214,1253.39 L627.231,1256.82 L629.269,1260.24 L631.329,1263.65 L633.411,1267.04 L635.513,1270.42 L637.637,1273.79 L639.781,1277.14 L641.947,1280.48 L644.134,1283.81 L646.341,1287.12 L648.57,1290.42 L650.818,1293.71 L653.088,1296.98 L655.378,1300.24 L657.688,1303.48 L660.019,1306.71 L662.369,1309.92 L664.74,1313.12 L667.131,1316.3 L669.542,1319.47 L671.973,1322.62 L674.423,1325.76 L676.893,1328.88 L679.382,1331.99 L681.891,1335.08 L684.42,1338.16 L686.967,1341.21 L689.534,1344.26 L692.12,1347.29 L694.724,1350.3 L697.348,1353.29 L699.99,1356.27 L702.651,1359.23 L705.33,1362.18 L708.028,1365.1 L710.744,1368.01 L713.478,1370.91 L716.231,1373.78 L719.001,1376.64 L721.789,1379.49 L724.595,1382.31 L727.419,1385.12 L730.26,1387.91 L733.119,1390.68 L735.995,1393.43 L738.888,1396.16 L741.798,1398.88 L744.725,1401.58 L747.67,1404.26 L750.63,1406.92 L753.608,1409.56 L756.602,1412.19 L759.612,1414.79 L762.639,1417.38 L765.682,1419.95 L768.741,1422.49 L771.816,1425.02 L774.906,1427.53 L778.013,1430.02 L781.135,1432.49 L784.272,1434.94 L787.424,1437.38 L790.592,1439.79 L793.775,1442.18 L796.973,1444.55 L800.185,1446.9 L803.413,1449.23 L806.655,1451.54 L809.911,1453.84 L813.181,1456.11 L816.466,1458.35 L819.765,1460.58 L823.078,1462.79 L826.404,1464.98 L829.744,1467.15 L833.098,1469.29 L836.465,1471.42 L839.845,1473.52 L843.239,1475.6 L846.645,1477.66 L850.065,1479.7 L853.497,1481.72 L856.941,1483.71 L860.398,1485.69 L863.868,1487.64 L867.349,1489.57 L870.843,1491.48 L874.348,1493.37 L877.866,1495.23 L881.394,1497.08 L884.935,1498.9 L888.487,1500.7 L892.05,1502.47 L895.624,1504.23 L899.209,1505.96 L902.804,1507.67 L906.411,1509.35 L910.028,1511.02 L1173.5,933.5"/>
</g>

<g fill="#ffffff" fill-opacity="1" stroke="#000000" stroke-opacity="1" stroke-width="1" stroke-linecap="butt" stroke-linejoin="miter" stroke-miterlimit="4.97494" transform="matrix(1,0,0,1,0,0)"
font-family="MS Shell Dlg 2" font-size="104" font-weight="400" font-style="normal" 
>
</g>

<g fill="#ffffff" fill-opacity="1" stroke="#000000" stroke-opacity="1" stroke-width="1" stroke-linecap="butt" stroke-linejoin="miter" stroke-miterlimit="4.97494" transform="matrix(1,0,0,1,0,0)"
font-family="MS Shell Dlg 2" font-size="104" font-weight="400" font-style="normal" 
>
</g>

<g fill="none" stroke="#000000" stroke-opacity="1" stroke-width="13" stroke-linecap="butt" stroke-linejoin="miter" stroke-miterlimit="4.97494" transform="matrix(1,0,0,1,0,0)"
font-family="MS Shell Dlg 2" font-size="104" font-weight="400" font-style="normal" 
>
<path vector-effect="none" fill-rule="nonzero" d="M1173.5,933.5 L543.604,854.911 L543.123,858.864 L542.667,862.819 L542.236,866.776 L541.83,870.737 L541.449,874.7 L541.093,878.665 L540.761,882.633 L540.455,886.602 L540.173,890.573 L539.916,894.546 L539.685,898.521 L539.478,902.496 L539.296,906.473 L539.139,910.452 L539.006,914.431 L538.899,918.41 L538.817,922.391 L538.76,926.372 L538.728,930.353 L538.721,934.334 L538.738,938.315 L538.781,942.296 L538.849,946.277 L538.941,950.257 L539.059,954.236 L539.201,958.215 L539.369,962.193 L539.561,966.169 L539.779,970.145 L540.021,974.118 L540.288,978.091 L540.58,982.061 L540.897,986.03 L541.239,989.996 L541.606,993.961 L541.998,997.922 L542.414,1001.88 L542.855,1005.84 L543.321,1009.79 L543.812,1013.74 L544.328,1017.69 L544.868,1021.64 L545.433,1025.58 L546.023,1029.51 L546.638,1033.45 L547.277,1037.38 L547.941,1041.3 L548.629,1045.22 L549.342,1049.14 L550.08,1053.05 L550.842,1056.96 L551.628,1060.86 L552.439,1064.76 L553.275,1068.65 L554.135,1072.54 L555.019,1076.42 L555.927,1080.3 L556.86,1084.17 L557.817,1088.03 L558.799,1091.89 L559.804,1095.74 L560.834,1099.59 L561.888,1103.43 L562.965,1107.26 L564.067,1111.09 L565.193,1114.91 L566.343,1118.72 L567.516,1122.52 L568.714,1126.32 L569.935,1130.11 L571.18,1133.89 L572.448,1137.66 L573.741,1141.43 L575.057,1145.19 L576.396,1148.94 L577.759,1152.68 L579.145,1156.41 L580.555,1160.13 L581.988,1163.85 L583.444,1167.55 L584.924,1171.25 L586.427,1174.93 L587.952,1178.61 L589.501,1182.28 L591.073,1185.94 L592.668,1189.58 L594.285,1193.22 L595.925,1196.85 L597.588,1200.47 L599.274,1204.07 L600.982,1207.67 L602.713,1211.26 L604.466,1214.83 L606.242,1218.39 L608.04,1221.95 L609.86,1225.49 L611.703,1229.02 L613.567,1232.53 L615.454,1236.04 L617.362,1239.53 L619.292,1243.01 L621.244,1246.48 L623.218,1249.94 L625.214,1253.39 L627.231,1256.82 L629.269,1260.24 L631.329,1263.65 L633.411,1267.04 L635.513,1270.42 L637.637,1273.79 L639.781,1277.14 L641.947,1280.48 L644.134,1283.81 L646.341,1287.12 L648.57,1290.42 L650.818,1293.71 L653.088,1296.98 L655.378,1300.24 L657.688,1303.48 L660.019,1306.71 L662.369,1309.92 L664.74,1313.12 L667.131,1316.3 L669.542,1319.47 L671.973,1322.62 L674.423,1325.76 L676.893,1328.88 L679.382,1331.99 L681.891,1335.08 L684.42,1338.16 L686.967,1341.21 L689.534,1344.26 L692.12,1347.29 L694.724,1350.3 L697.348,1353.29 L699.99,1356.27 L702.651,1359.23 L705.33,1362.18 L708.028,1365.1 L710.744,1368.01 L713.478,1370.91 L716.231,1373.78 L719.001,1376.64 L721.789,1379.49 L724.595,1382.31 L727.419,1385.12 L730.26,1387.91 L733.119,1390.68 L735.995,1393.43 L738.888,1396.16 L741.798,1398.88 L744.725,1401.58 L747.67,1404.26 L750.63,1406.92 L753.608,1409.56 L756.602,1412.19 L759.612,1414.79 L762.639,1417.38 L765.682,1419.95 L768.741,1422.49 L771.816,1425.02 L774.906,1427.53 L778.013,1430.02 L781.135,1432.49 L784.272,1434.94 L787.424,1437.38 L790.592,1439.79 L793.775,1442.18 L796.973,1444.55 L800.185,1446.9 L803.413,1449.23 L806.655,1451.54 L809.911,1453.84 L813.181,1456.11 L816.466,1458.35 L819.765,1460.58 L823.078,1462.79 L826.404,1464.98 L829.744,1467.15 L833.098,1469.29 L836.465,1471.42 L839.845,1473.52 L843.239,1475.6 L846.645,1477.66 L850.065,1479.7 L853.497,1481.72 L856.941,1483.71 L860.398,1485.69 L863.868,1487.64 L867.349,1489.57 L870.843,1491.48 L874.348,1493.37 L877.866,1495.23 L881.394,1497.08 L884.935,1498.9 L888.487,1500.7 L892.05,1502.47 L895.624,1504.23 L899.209,1505.96 L902.804,1507.67 L906.411,1509.35 L910.028,1511.02 L1173.5,933.5"/>
</g>

<g fill="#ffffff" fill-opacity="1" stroke="#000000" stroke-opacity="1" stroke-width="1" stroke-linecap="butt" stroke-linejoin="miter" stroke-miterlimit="4.97494" transform="matrix(1,0,0,1,0,0)"
font-family="MS Shell Dlg 2" font-size="104" font-weight="400" font-style="normal" 
>
</g>

<g fill="#ffffff" fill-opacity="1" stroke="#000000" stroke-opacity="1" stroke-width="1" stroke-linecap="butt" stroke-linejoin="miter" stroke-miterlimit="4.97494" transform="matrix(1,0,0,1,0,0)"
font-family="MS Shell Dlg 2" font-size="104" font-weight="400" font-style="normal" 
>
</g>

<g fill="#3288bd" fill-opacity="1" stroke="none" transform="matrix(1,0,0,1,0,0)"
font-family="MS Shell Dlg 2" font-size="104" font-weight="400" font-style="normal" 
>
<path vector-effect="none" fill-rule="nonzero" d="M1173.5,933.5 L910.028,1511.02 L913.628,1512.65 L917.239,1514.25 L920.859,1515.84 L924.489,1517.4 L928.129,1518.94 L931.779,1520.46 L935.438,1521.95 L939.106,1523.42 L942.783,1524.87 L946.469,1526.29 L950.164,1527.69 L953.867,1529.07 L957.579,1530.43 L961.3,1531.76 L965.028,1533.07 L968.765,1534.36 L972.51,1535.62 L976.262,1536.86 L980.022,1538.08 L983.79,1539.27 L987.565,1540.44 L991.347,1541.58 L995.136,1542.71 L998.932,1543.8 L1002.73,1544.88 L1006.54,1545.93 L1010.36,1546.96 L1014.18,1547.96 L1018.01,1548.94 L1021.85,1549.9 L1025.69,1550.83 L1029.53,1551.74 L1033.38,1552.62 L1037.24,1553.48 L1041.1,1554.32 L1044.97,1555.13 L1048.84,1555.92 L1052.72,1556.68 L1056.6,1557.42 L1060.49,1558.14 L1064.38,1558.83 L1068.28,1559.5 L1072.17,1560.14 L1076.08,1560.76 L1079.98,1561.35 L1083.89,1561.92 L1087.81,1562.47 L1091.73,1562.99 L1095.65,1563.49 L1099.57,1563.96 L1103.5,1564.41 L1107.43,1564.83 L1111.36,1565.23 L1115.29,1565.61 L1119.23,1565.96 L1123.17,1566.28 L1127.11,1566.58 L1131.05,1566.86 L1134.99,1567.11 L1138.94,1567.34 L1142.88,1567.54 L1146.83,1567.72 L1150.78,1567.87 L1154.73,1568 L1158.68,1568.11 L1162.63,1568.19 L1173.5,933.5"/>
</g>

<g fill="#ffffff" fill-opacity="1" stroke="#000000" stroke-opacity="1" stroke-width="1" stroke-linecap="butt" stroke-linejoin="miter" stroke-miterlimit="4.97494" transform="matrix(1,0,0,1,0,0)"
font-family="MS Shell Dlg 2" font-size="104" font-weight="400" font-style="normal" 
>
</g>

<g fill="#ffffff" fill-opacity="1" stroke="#000000" stroke-opacity="1" stroke-width="1" stroke-linecap="butt" stroke-linejoin="miter" stroke-miterlimit="4.97494" transform="matrix(1,0,0,1,0,0)"
font-family="MS Shell Dlg 2" font-size="104" font-weight="400" font-style="normal" 
>
</g>

<g fill="none" stroke="#000000" stroke-opacity="1" stroke-width="13" stroke-linecap="butt" stroke-linejoin="miter" stroke-miterlimit="4.97494" transform="matrix(1,0,0,1,0,0)"
font-family="MS Shell Dlg 2" font-size="104" font-weight="400" font-style="normal" 
>
<path vector-effect="none" fill-rule="nonzero" d="M1173.5,933.5 L910.028,1511.02 L913.628,1512.65 L917.239,1514.25 L920.859,1515.84 L924.489,1517.4 L928.129,1518.94 L931.779,1520.46 L935.438,1521.95 L939.106,1523.42 L942.783,1524.87 L946.469,1526.29 L950.164,1527.69 L953.867,1529.07 L957.579,1530.43 L961.3,1531.76 L965.028,1533.07 L968.765,1534.36 L972.51,1535.62 L976.262,1536.86 L980.022,1538.08 L983.79,1539.27 L987.565,1540.44 L991.347,1541.58 L995.136,1542.71 L998.932,1543.8 L1002.73,1544.88 L1006.54,1545.93 L1010.36,1546.96 L1014.18,1547.96 L1018.01,1548.94 L1021.85,1549.9 L1025.69,1550.83 L1029.53,1551.74 L1033.38,1552.62 L1037.24,1553.48 L1041.1,1554.32 L1044.97,1555.13 L1048.84,1555.92 L1052.72,1556.68 L1056.6,1557.42 L1060.49,1558.14 L1064.38,1558.83 L1068.28,1559.5 L1072.17,1560.14 L1076.08,1560.76 L1079.98,1561.35 L1083.89,1561.92 L1087.81,1562.47 L1091.73,1562.99 L1095.65,1563.49 L1099.57,1563.96 L1103.5,1564.41 L1107.43,1564.83 L1111.36,1565.23 L1115.29,1565.61 L1119.23,1565.96 L1123.17,1566.28 L1127.11,1566.58 L1131.05,1566.86 L1134.99,1567.11 L1138.94,1567.34 L1142.88,1567.54 L1146.83,1567.72 L1150.78,1567.87 L1154.73,1568 L1158.68,1568.11 L1162.63,1568.19 L1173.5,933.5"/>
</g>

<g fill="#ffffff" fill-opacity="1" stroke="#000000" stroke-opacity="1" stroke-width="1" stroke-linecap="butt" stroke-linejoin="miter" stroke-miterlimit="4.97494" transform="matrix(1,0,0,1,0,0)"
font-family="MS Shell Dlg 2" font-size="104" font-weight="400" font-style="normal" 
>
</g>

<g fill="#ffffff" fill-opacity="1" stroke="#000000" stroke-opacity="1" stroke-width="1" stroke-linecap="butt" stroke-linejoin="miter" stroke-miterlimit="4.97494" transform="matrix(1,0,0,1,0,0)"
font-family="MS Shell Dlg 2" font-size="104" font-weight="400" font-style="normal" 
>
</g>

<g fill="#999999" fill-opacity="1" stroke="none" transform="matrix(1,0,0,1,0,0)"
font-family="MS Shell Dlg 2" font-size="104" font-weight="400" font-style="normal" 
>
<path vector-effect="none" fill-rule="nonzero" d="M1173.5,933.5 L1162.63,1568.19 L1166.26,1568.24 L1169.88,1568.27 L1173.5,1568.28 L1173.5,933.5"/>
</g>

<g fill="#ffffff" fill-opacity="1" stroke="#000000" stroke-opacity="1" stroke-width="1" stroke-linecap="butt" stroke-linejoin="miter" stroke-miterlimit="4.97494" transform="matrix(1,0,0,1,0,0)"
font-family="MS Shell Dlg 2" font-size="104" font-weight="400" font-style="normal" 
>
</g>

<g fill="#ffffff" fill-opacity="1" stroke="#000000" stroke-opacity="1" stroke-width="1" stroke-linecap="butt" stroke-linejoin="miter" stroke-miterlimit="4.97494" transform="matrix(1,0,0,1,0,0)"
font-family="MS Shell Dlg 2" font-size="104" font-weight="400" font-style="normal" 
>
</g>

<g fill="none" stroke="#000000" stroke-opacity="1" stroke-width="13" stroke-linecap="butt" stroke-linejoin="miter" stroke-miterlimit="4.97494" transform="matrix(1,0,0,1,0,0)"
font-family="MS Shell Dlg 2" font-size="104" font-weight="400" font-style="normal" 
>
<path vector-effect="none" fill-rule="nonzero" d="M1173.5,933.5 L1162.63,1568.19 L1166.26,1568.24 L1169.88,1568.27 L1173.5,1568.28 L1173.5,933.5"/>
</g>

<g fill="#ffffff" fill-opacity="1" stroke="#000000" stroke-opacity="1" stroke-width="1" stroke-linecap="butt" stroke-linejoin="miter" stroke-miterlimit="4.97494" transform="matrix(1,0,0,1,0,0)"
font-family="MS Shell Dlg 2" font-size="104" font-weight="400" font-style="normal" 
>
</g>

<g fill="#ffffff" fill-opacity="1" stroke="#000000" stroke-opacity="1" stroke-width="1" stroke-linecap="butt" stroke-linejoin="miter" stroke-miterlimit="4.97494" transform="matrix(1,0,0,1,0,0)"
font-family="MS Shell Dlg 2" font-size="104" font-weight="400" font-style="normal" 
>
</g>

<g fill="#ffffff" fill-opacity="1" stroke="#000000" stroke-opacity="1" stroke-width="1" stroke-linecap="butt" stroke-linejoin="miter" stroke-miterlimit="4.97494" transform="matrix(1,0,0,1,1767,802)"
font-family="MS Shell Dlg 2" font-size="104" font-weight="400" font-style="normal" 
>
</g>

<g fill="#ffffff" fill-opacity="1" stroke="#000000" stroke-opacity="1" stroke-width="0.01" stroke-linecap="butt" stroke-linejoin="miter" stroke-miterlimit="4.97494" transform="matrix(1,0,0,1,1767,802)"
font-family="Arial" font-size="133" font-weight="400" font-style="normal" 
>
<text fill="#000000" fill-opacity="1" stroke="none" xml:space="preserve" x="0" y="118" font-family="Arial" font-size="133" font-weight="400" font-style="normal" 
 >52.3%</text>
</g>

<g fill="#ffffff" fill-opacity="1" stroke="#000000" stroke-opacity="1" stroke-width="1" stroke-linecap="butt" stroke-linejoin="miter" stroke-miterlimit="4.97494" transform="matrix(1,0,0,1,1767,802)"
font-family="MS Shell Dlg 2" font-size="104" font-weight="400" font-style="normal" 
>
</g>

<g fill="#ffffff" fill-opacity="1" stroke="#000000" stroke-opacity="1" stroke-width="1" stroke-linecap="butt" stroke-linejoin="miter" stroke-miterlimit="4.97494" transform="matrix(1,0,0,1,0,0)"
font-family="MS Shell Dlg 2" font-size="104" font-weight="400" font-style="normal" 
>
</g>

<g fill="#ffffff" fill-opacity="1" stroke="#000000" stroke-opacity="1" stroke-width="1" stroke-linecap="butt" stroke-linejoin="miter" stroke-miterlimit="4.97494" transform="matrix(1,0,0,1,425,310)"
font-family="MS Shell Dlg 2" font-size="104" font-weight="400" font-style="normal" 
>
</g>

<g fill="#ffffff" fill-opacity="1" stroke="#000000" stroke-opacity="1" stroke-width="0.01" stroke-linecap="butt" stroke-linejoin="miter" stroke-miterlimit="4.97494" transform="matrix(1,0,0,1,425,310)"
font-family="Arial" font-size="133" font-weight="400" font-style="normal" 
>
<text fill="#000000" fill-opacity="1" stroke="none" xml:space="preserve" x="0" y="118" font-family="Arial" font-size="133" font-weight="400" font-style="normal" 
 >20.7%</text>
</g>

<g fill="#ffffff" fill-opacity="1" stroke="#000000" stroke-opacity="1" stroke-width="1" stroke-linecap="butt" stroke-linejoin="miter" stroke-miterlimit="4.97494" transform="matrix(1,0,0,1,425,310)"
font-family="MS Shell Dlg 2" font-size="104" font-weight="400" font-style="normal" 
>
</g>

<g fill="#ffffff" fill-opacity="1" stroke="#000000" stroke-opacity="1" stroke-width="1" stroke-linecap="butt" stroke-linejoin="miter" stroke-miterlimit="4.97494" transform="matrix(1,0,0,1,0,0)"
font-family="MS Shell Dlg 2" font-size="104" font-weight="400" font-style="normal" 
>
</g>

<g fill="#ffffff" fill-opacity="1" stroke="#000000" stroke-opacity="1" stroke-width="1" stroke-linecap="butt" stroke-linejoin="miter" stroke-miterlimit="4.97494" transform="matrix(1,0,0,1,300,1241)"
font-family="MS Shell Dlg 2" font-size="104" font-weight="400" font-style="normal" 
>
</g>

<g fill="#ffffff" fill-opacity="1" stroke="#000000" stroke-opacity="1" stroke-width="0.01" stroke-linecap="butt" stroke-linejoin="miter" stroke-miterlimit="4.97494" transform="matrix(1,0,0,1,300,1241)"
font-family="Arial" font-size="133" font-weight="400" font-style="normal" 
>
<text fill="#000000" fill-opacity="1" stroke="none" xml:space="preserve" x="0" y="118" font-family="Arial" font-size="133" font-weight="400" font-style="normal" 
 >20.2%</text>
</g>

<g fill="#ffffff" fill-opacity="1" stroke="#000000" stroke-opacity="1" stroke-width="1" stroke-linecap="butt" stroke-linejoin="miter" stroke-miterlimit="4.97494" transform="matrix(1,0,0,1,300,1241)"
font-family="MS Shell Dlg 2" font-size="104" font-weight="400" font-style="normal" 
>
</g>

<g fill="#ffffff" fill-opacity="1" stroke="#000000" stroke-opacity="1" stroke-width="1" stroke-linecap="butt" stroke-linejoin="miter" stroke-miterlimit="4.97494" transform="matrix(1,0,0,1,0,0)"
font-family="MS Shell Dlg 2" font-size="104" font-weight="400" font-style="normal" 
>
</g>

<g fill="#ffffff" fill-opacity="1" stroke="#000000" stroke-opacity="1" stroke-width="1" stroke-linecap="butt" stroke-linejoin="miter" stroke-miterlimit="4.97494" transform="matrix(1,0,0,1,849,1624)"
font-family="MS Shell Dlg 2" font-size="104" font-weight="400" font-style="normal" 
>
</g>

<g fill="#ffffff" fill-opacity="1" stroke="#000000" stroke-opacity="1" stroke-width="0.01" stroke-linecap="butt" stroke-linejoin="miter" stroke-miterlimit="4.97494" transform="matrix(1,0,0,1,849,1624)"
font-family="Arial" font-size="133" font-weight="400" font-style="normal" 
>
<text fill="#000000" fill-opacity="1" stroke="none" xml:space="preserve" x="0" y="118" font-family="Arial" font-size="133" font-weight="400" font-style="normal" 
 >6.5%</text>
</g>

<g fill="#ffffff" fill-opacity="1" stroke="#000000" stroke-opacity="1" stroke-width="1" stroke-linecap="butt" stroke-linejoin="miter" stroke-miterlimit="4.97494" transform="matrix(1,0,0,1,849,1624)"
font-family="MS Shell Dlg 2" font-size="104" font-weight="400" font-style="normal" 
>
</g>

<g fill="#ffffff" fill-opacity="1" stroke="#000000" stroke-opacity="1" stroke-width="1" stroke-linecap="butt" stroke-linejoin="miter" stroke-miterlimit="4.97494" transform="matrix(1,0,0,1,0,0)"
font-family="MS Shell Dlg 2" font-size="104" font-weight="400" font-style="normal" 
>
</g>

<g fill="#ffffff" fill-opacity="1" stroke="#000000" stroke-opacity="1" stroke-width="1" stroke-linecap="butt" stroke-linejoin="miter" stroke-miterlimit="4.97494" transform="matrix(1,0,0,1,1015,1643)"
font-family="MS Shell Dlg 2" font-size="104" font-weight="400" font-style="normal" 
>
</g>

<g fill="#ffffff" fill-opacity="1" stroke="#000000" stroke-opacity="1" stroke-width="0.01" stroke-linecap="butt" stroke-linejoin="miter" stroke-miterlimit="4.97494" transform="matrix(1,0,0,1,1015,1643)"
font-family="Arial" font-size="133" font-weight="400" font-style="normal" 
>
<text fill="#000000" fill-opacity="1" stroke="none" xml:space="preserve" x="0" y="118" font-family="Arial" font-size="133" font-weight="400" font-style="normal" 
 >0.3%</text>
</g>

<g fill="#ffffff" fill-opacity="1" stroke="#000000" stroke-opacity="1" stroke-width="1" stroke-linecap="butt" stroke-linejoin="miter" stroke-miterlimit="4.97494" transform="matrix(1,0,0,1,1015,1643)"
font-family="MS Shell Dlg 2" font-size="104" font-weight="400" font-style="normal" 
>
</g>

<g fill="#ffffff" fill-opacity="1" stroke="#000000" stroke-opacity="1" stroke-width="1" stroke-linecap="butt" stroke-linejoin="miter" stroke-miterlimit="4.97494" transform="matrix(1,0,0,1,0,0)"
font-family="MS Shell Dlg 2" font-size="104" font-weight="400" font-style="normal" 
>
</g>
</g>
</svg>
