<?xml version="1.0" encoding="UTF-8" standalone="no"?>
<svg width="54.6629mm" height="53.9485mm"
 viewBox="0 0 2066 2039"
 xmlns="http://www.w3.org/2000/svg" xmlns:xlink="http://www.w3.org/1999/xlink"  version="1.2" baseProfile="tiny">
<title>Qt SVG Document</title>
<desc>Generated with Qt</desc>
<defs>
</defs>
<g fill="none" stroke="black" stroke-width="1" fill-rule="evenodd" stroke-linecap="square" stroke-linejoin="bevel" >

<g fill="#ffffff" fill-opacity="1" stroke="#000000" stroke-opacity="1" stroke-width="1" stroke-linecap="butt" stroke-linejoin="miter" stroke-miterlimit="4.97494" transform="matrix(1,0,0,1,0,0)"
font-family="MS Shell Dlg 2" font-size="104" font-weight="400" font-style="normal" 
>
</g>

<g fill="#ffffff" fill-opacity="1" stroke="#000000" stroke-opacity="1" stroke-width="13" stroke-linecap="butt" stroke-linejoin="miter" stroke-miterlimit="4.97494" transform="matrix(1,0,0,1,0,0)"
font-family="MS Shell Dlg 2" font-size="104" font-weight="400" font-style="normal" 
>
<polyline fill="none" vector-effect="none" points="380.5,119 380.5,1732 " />
</g>

<g fill="#ffffff" fill-opacity="1" stroke="#000000" stroke-opacity="1" stroke-width="1" stroke-linecap="butt" stroke-linejoin="miter" stroke-miterlimit="4.97494" transform="matrix(1,0,0,1,0,0)"
font-family="MS Shell Dlg 2" font-size="104" font-weight="400" font-style="normal" 
>
</g>

<g fill="#ffffff" fill-opacity="1" stroke="#000000" stroke-opacity="1" stroke-width="13" stroke-linecap="butt" stroke-linejoin="miter" stroke-miterlimit="4.97494" transform="matrix(1,0,0,1,0,0)"
font-family="MS Shell Dlg 2" font-size="104" font-weight="400" font-style="normal" 
>
<polyline fill="none" vector-effect="none" points="300,119.5 387,119.5 " />
</g>

<g fill="#ffffff" fill-opacity="1" stroke="#000000" stroke-opacity="1" stroke-width="1" stroke-linecap="butt" stroke-linejoin="miter" stroke-miterlimit="4.97494" transform="matrix(1,0,0,1,0,0)"
font-family="MS Shell Dlg 2" font-size="104" font-weight="400" font-style="normal" 
>
</g>

<g fill="#ffffff" fill-opacity="1" stroke="#000000" stroke-opacity="1" stroke-width="1" stroke-linecap="butt" stroke-linejoin="miter" stroke-miterlimit="4.97494" transform="matrix(1,0,0,1,143,60)"
font-family="MS Shell Dlg 2" font-size="104" font-weight="400" font-style="normal" 
>
</g>

<g fill="#ffffff" fill-opacity="1" stroke="#000000" stroke-opacity="1" stroke-width="0.01" stroke-linecap="butt" stroke-linejoin="miter" stroke-miterlimit="4.97494" transform="matrix(1,0,0,1,143,60)"
font-family="Helvetica" font-size="107" font-weight="400" font-style="normal" 
>
<text fill="#000000" fill-opacity="1" stroke="none" xml:space="preserve" x="0" y="95" font-family="Helvetica" font-size="107" font-weight="400" font-style="normal" 
 >30</text>
</g>

<g fill="#ffffff" fill-opacity="1" stroke="#000000" stroke-opacity="1" stroke-width="1" stroke-linecap="butt" stroke-linejoin="miter" stroke-miterlimit="4.97494" transform="matrix(1,0,0,1,143,60)"
font-family="MS Shell Dlg 2" font-size="104" font-weight="400" font-style="normal" 
>
</g>

<g fill="#ffffff" fill-opacity="1" stroke="#000000" stroke-opacity="1" stroke-width="1" stroke-linecap="butt" stroke-linejoin="miter" stroke-miterlimit="4.97494" transform="matrix(1,0,0,1,0,0)"
font-family="MS Shell Dlg 2" font-size="104" font-weight="400" font-style="normal" 
>
</g>

<g fill="#ffffff" fill-opacity="1" stroke="#000000" stroke-opacity="1" stroke-width="13" stroke-linecap="butt" stroke-linejoin="miter" stroke-miterlimit="4.97494" transform="matrix(1,0,0,1,0,0)"
font-family="MS Shell Dlg 2" font-size="104" font-weight="400" font-style="normal" 
>
<polyline fill="none" vector-effect="none" points="300,386.5 387,386.5 " />
</g>

<g fill="#ffffff" fill-opacity="1" stroke="#000000" stroke-opacity="1" stroke-width="1" stroke-linecap="butt" stroke-linejoin="miter" stroke-miterlimit="4.97494" transform="matrix(1,0,0,1,0,0)"
font-family="MS Shell Dlg 2" font-size="104" font-weight="400" font-style="normal" 
>
</g>

<g fill="#ffffff" fill-opacity="1" stroke="#000000" stroke-opacity="1" stroke-width="1" stroke-linecap="butt" stroke-linejoin="miter" stroke-miterlimit="4.97494" transform="matrix(1,0,0,1,143,327)"
font-family="MS Shell Dlg 2" font-size="104" font-weight="400" font-style="normal" 
>
</g>

<g fill="#ffffff" fill-opacity="1" stroke="#000000" stroke-opacity="1" stroke-width="0.01" stroke-linecap="butt" stroke-linejoin="miter" stroke-miterlimit="4.97494" transform="matrix(1,0,0,1,143,327)"
font-family="Helvetica" font-size="107" font-weight="400" font-style="normal" 
>
<text fill="#000000" fill-opacity="1" stroke="none" xml:space="preserve" x="0" y="95" font-family="Helvetica" font-size="107" font-weight="400" font-style="normal" 
 >25</text>
</g>

<g fill="#ffffff" fill-opacity="1" stroke="#000000" stroke-opacity="1" stroke-width="1" stroke-linecap="butt" stroke-linejoin="miter" stroke-miterlimit="4.97494" transform="matrix(1,0,0,1,143,327)"
font-family="MS Shell Dlg 2" font-size="104" font-weight="400" font-style="normal" 
>
</g>

<g fill="#ffffff" fill-opacity="1" stroke="#000000" stroke-opacity="1" stroke-width="1" stroke-linecap="butt" stroke-linejoin="miter" stroke-miterlimit="4.97494" transform="matrix(1,0,0,1,0,0)"
font-family="MS Shell Dlg 2" font-size="104" font-weight="400" font-style="normal" 
>
</g>

<g fill="#ffffff" fill-opacity="1" stroke="#000000" stroke-opacity="1" stroke-width="13" stroke-linecap="butt" stroke-linejoin="miter" stroke-miterlimit="4.97494" transform="matrix(1,0,0,1,0,0)"
font-family="MS Shell Dlg 2" font-size="104" font-weight="400" font-style="normal" 
>
<polyline fill="none" vector-effect="none" points="300,652.5 387,652.5 " />
</g>

<g fill="#ffffff" fill-opacity="1" stroke="#000000" stroke-opacity="1" stroke-width="1" stroke-linecap="butt" stroke-linejoin="miter" stroke-miterlimit="4.97494" transform="matrix(1,0,0,1,0,0)"
font-family="MS Shell Dlg 2" font-size="104" font-weight="400" font-style="normal" 
>
</g>

<g fill="#ffffff" fill-opacity="1" stroke="#000000" stroke-opacity="1" stroke-width="1" stroke-linecap="butt" stroke-linejoin="miter" stroke-miterlimit="4.97494" transform="matrix(1,0,0,1,143,593)"
font-family="MS Shell Dlg 2" font-size="104" font-weight="400" font-style="normal" 
>
</g>

<g fill="#ffffff" fill-opacity="1" stroke="#000000" stroke-opacity="1" stroke-width="0.01" stroke-linecap="butt" stroke-linejoin="miter" stroke-miterlimit="4.97494" transform="matrix(1,0,0,1,143,593)"
font-family="Helvetica" font-size="107" font-weight="400" font-style="normal" 
>
<text fill="#000000" fill-opacity="1" stroke="none" xml:space="preserve" x="0" y="95" font-family="Helvetica" font-size="107" font-weight="400" font-style="normal" 
 >20</text>
</g>

<g fill="#ffffff" fill-opacity="1" stroke="#000000" stroke-opacity="1" stroke-width="1" stroke-linecap="butt" stroke-linejoin="miter" stroke-miterlimit="4.97494" transform="matrix(1,0,0,1,143,593)"
font-family="MS Shell Dlg 2" font-size="104" font-weight="400" font-style="normal" 
>
</g>

<g fill="#ffffff" fill-opacity="1" stroke="#000000" stroke-opacity="1" stroke-width="1" stroke-linecap="butt" stroke-linejoin="miter" stroke-miterlimit="4.97494" transform="matrix(1,0,0,1,0,0)"
font-family="MS Shell Dlg 2" font-size="104" font-weight="400" font-style="normal" 
>
</g>

<g fill="#ffffff" fill-opacity="1" stroke="#000000" stroke-opacity="1" stroke-width="13" stroke-linecap="butt" stroke-linejoin="miter" stroke-miterlimit="4.97494" transform="matrix(1,0,0,1,0,0)"
font-family="MS Shell Dlg 2" font-size="104" font-weight="400" font-style="normal" 
>
<polyline fill="none" vector-effect="none" points="300,919.5 387,919.5 " />
</g>

<g fill="#ffffff" fill-opacity="1" stroke="#000000" stroke-opacity="1" stroke-width="1" stroke-linecap="butt" stroke-linejoin="miter" stroke-miterlimit="4.97494" transform="matrix(1,0,0,1,0,0)"
font-family="MS Shell Dlg 2" font-size="104" font-weight="400" font-style="normal" 
>
</g>

<g fill="#ffffff" fill-opacity="1" stroke="#000000" stroke-opacity="1" stroke-width="1" stroke-linecap="butt" stroke-linejoin="miter" stroke-miterlimit="4.97494" transform="matrix(1,0,0,1,143,860)"
font-family="MS Shell Dlg 2" font-size="104" font-weight="400" font-style="normal" 
>
</g>

<g fill="#ffffff" fill-opacity="1" stroke="#000000" stroke-opacity="1" stroke-width="0.01" stroke-linecap="butt" stroke-linejoin="miter" stroke-miterlimit="4.97494" transform="matrix(1,0,0,1,143,860)"
font-family="Helvetica" font-size="107" font-weight="400" font-style="normal" 
>
<text fill="#000000" fill-opacity="1" stroke="none" xml:space="preserve" x="0" y="95" font-family="Helvetica" font-size="107" font-weight="400" font-style="normal" 
 >15</text>
</g>

<g fill="#ffffff" fill-opacity="1" stroke="#000000" stroke-opacity="1" stroke-width="1" stroke-linecap="butt" stroke-linejoin="miter" stroke-miterlimit="4.97494" transform="matrix(1,0,0,1,143,860)"
font-family="MS Shell Dlg 2" font-size="104" font-weight="400" font-style="normal" 
>
</g>

<g fill="#ffffff" fill-opacity="1" stroke="#000000" stroke-opacity="1" stroke-width="1" stroke-linecap="butt" stroke-linejoin="miter" stroke-miterlimit="4.97494" transform="matrix(1,0,0,1,0,0)"
font-family="MS Shell Dlg 2" font-size="104" font-weight="400" font-style="normal" 
>
</g>

<g fill="#ffffff" fill-opacity="1" stroke="#000000" stroke-opacity="1" stroke-width="13" stroke-linecap="butt" stroke-linejoin="miter" stroke-miterlimit="4.97494" transform="matrix(1,0,0,1,0,0)"
font-family="MS Shell Dlg 2" font-size="104" font-weight="400" font-style="normal" 
>
<polyline fill="none" vector-effect="none" points="300,1186.5 387,1186.5 " />
</g>

<g fill="#ffffff" fill-opacity="1" stroke="#000000" stroke-opacity="1" stroke-width="1" stroke-linecap="butt" stroke-linejoin="miter" stroke-miterlimit="4.97494" transform="matrix(1,0,0,1,0,0)"
font-family="MS Shell Dlg 2" font-size="104" font-weight="400" font-style="normal" 
>
</g>

<g fill="#ffffff" fill-opacity="1" stroke="#000000" stroke-opacity="1" stroke-width="1" stroke-linecap="butt" stroke-linejoin="miter" stroke-miterlimit="4.97494" transform="matrix(1,0,0,1,143,1127)"
font-family="MS Shell Dlg 2" font-size="104" font-weight="400" font-style="normal" 
>
</g>

<g fill="#ffffff" fill-opacity="1" stroke="#000000" stroke-opacity="1" stroke-width="0.01" stroke-linecap="butt" stroke-linejoin="miter" stroke-miterlimit="4.97494" transform="matrix(1,0,0,1,143,1127)"
font-family="Helvetica" font-size="107" font-weight="400" font-style="normal" 
>
<text fill="#000000" fill-opacity="1" stroke="none" xml:space="preserve" x="0" y="95" font-family="Helvetica" font-size="107" font-weight="400" font-style="normal" 
 >10</text>
</g>

<g fill="#ffffff" fill-opacity="1" stroke="#000000" stroke-opacity="1" stroke-width="1" stroke-linecap="butt" stroke-linejoin="miter" stroke-miterlimit="4.97494" transform="matrix(1,0,0,1,143,1127)"
font-family="MS Shell Dlg 2" font-size="104" font-weight="400" font-style="normal" 
>
</g>

<g fill="#ffffff" fill-opacity="1" stroke="#000000" stroke-opacity="1" stroke-width="1" stroke-linecap="butt" stroke-linejoin="miter" stroke-miterlimit="4.97494" transform="matrix(1,0,0,1,0,0)"
font-family="MS Shell Dlg 2" font-size="104" font-weight="400" font-style="normal" 
>
</g>

<g fill="#ffffff" fill-opacity="1" stroke="#000000" stroke-opacity="1" stroke-width="13" stroke-linecap="butt" stroke-linejoin="miter" stroke-miterlimit="4.97494" transform="matrix(1,0,0,1,0,0)"
font-family="MS Shell Dlg 2" font-size="104" font-weight="400" font-style="normal" 
>
<polyline fill="none" vector-effect="none" points="300,1452.5 387,1452.5 " />
</g>

<g fill="#ffffff" fill-opacity="1" stroke="#000000" stroke-opacity="1" stroke-width="1" stroke-linecap="butt" stroke-linejoin="miter" stroke-miterlimit="4.97494" transform="matrix(1,0,0,1,0,0)"
font-family="MS Shell Dlg 2" font-size="104" font-weight="400" font-style="normal" 
>
</g>

<g fill="#ffffff" fill-opacity="1" stroke="#000000" stroke-opacity="1" stroke-width="1" stroke-linecap="butt" stroke-linejoin="miter" stroke-miterlimit="4.97494" transform="matrix(1,0,0,1,203,1393)"
font-family="MS Shell Dlg 2" font-size="104" font-weight="400" font-style="normal" 
>
</g>

<g fill="#ffffff" fill-opacity="1" stroke="#000000" stroke-opacity="1" stroke-width="0.01" stroke-linecap="butt" stroke-linejoin="miter" stroke-miterlimit="4.97494" transform="matrix(1,0,0,1,203,1393)"
font-family="Helvetica" font-size="107" font-weight="400" font-style="normal" 
>
<text fill="#000000" fill-opacity="1" stroke="none" xml:space="preserve" x="0" y="95" font-family="Helvetica" font-size="107" font-weight="400" font-style="normal" 
 >5</text>
</g>

<g fill="#ffffff" fill-opacity="1" stroke="#000000" stroke-opacity="1" stroke-width="1" stroke-linecap="butt" stroke-linejoin="miter" stroke-miterlimit="4.97494" transform="matrix(1,0,0,1,203,1393)"
font-family="MS Shell Dlg 2" font-size="104" font-weight="400" font-style="normal" 
>
</g>

<g fill="#ffffff" fill-opacity="1" stroke="#000000" stroke-opacity="1" stroke-width="1" stroke-linecap="butt" stroke-linejoin="miter" stroke-miterlimit="4.97494" transform="matrix(1,0,0,1,0,0)"
font-family="MS Shell Dlg 2" font-size="104" font-weight="400" font-style="normal" 
>
</g>

<g fill="#ffffff" fill-opacity="1" stroke="#000000" stroke-opacity="1" stroke-width="13" stroke-linecap="butt" stroke-linejoin="miter" stroke-miterlimit="4.97494" transform="matrix(1,0,0,1,0,0)"
font-family="MS Shell Dlg 2" font-size="104" font-weight="400" font-style="normal" 
>
<polyline fill="none" vector-effect="none" points="300,1719.5 387,1719.5 " />
</g>

<g fill="#ffffff" fill-opacity="1" stroke="#000000" stroke-opacity="1" stroke-width="1" stroke-linecap="butt" stroke-linejoin="miter" stroke-miterlimit="4.97494" transform="matrix(1,0,0,1,0,0)"
font-family="MS Shell Dlg 2" font-size="104" font-weight="400" font-style="normal" 
>
</g>

<g fill="#ffffff" fill-opacity="1" stroke="#000000" stroke-opacity="1" stroke-width="1" stroke-linecap="butt" stroke-linejoin="miter" stroke-miterlimit="4.97494" transform="matrix(1,0,0,1,203,1660)"
font-family="MS Shell Dlg 2" font-size="104" font-weight="400" font-style="normal" 
>
</g>

<g fill="#ffffff" fill-opacity="1" stroke="#000000" stroke-opacity="1" stroke-width="0.01" stroke-linecap="butt" stroke-linejoin="miter" stroke-miterlimit="4.97494" transform="matrix(1,0,0,1,203,1660)"
font-family="Helvetica" font-size="107" font-weight="400" font-style="normal" 
>
<text fill="#000000" fill-opacity="1" stroke="none" xml:space="preserve" x="0" y="95" font-family="Helvetica" font-size="107" font-weight="400" font-style="normal" 
 >0</text>
</g>

<g fill="#ffffff" fill-opacity="1" stroke="#000000" stroke-opacity="1" stroke-width="1" stroke-linecap="butt" stroke-linejoin="miter" stroke-miterlimit="4.97494" transform="matrix(1,0,0,1,203,1660)"
font-family="MS Shell Dlg 2" font-size="104" font-weight="400" font-style="normal" 
>
</g>

<g fill="#ffffff" fill-opacity="1" stroke="#000000" stroke-opacity="1" stroke-width="1" stroke-linecap="butt" stroke-linejoin="miter" stroke-miterlimit="4.97494" transform="matrix(1,0,0,1,0,0)"
font-family="MS Shell Dlg 2" font-size="104" font-weight="400" font-style="normal" 
>
</g>

<g fill="#ffffff" fill-opacity="1" stroke="#000000" stroke-opacity="1" stroke-width="1" stroke-linecap="butt" stroke-linejoin="miter" stroke-miterlimit="4.97494" transform="matrix(6.12323e-17,-1,1,6.12323e-17,-3.07386e-14,1421)"
font-family="MS Shell Dlg 2" font-size="104" font-weight="400" font-style="normal" 
>
</g>

<g fill="#ffffff" fill-opacity="1" stroke="#000000" stroke-opacity="1" stroke-width="0.01" stroke-linecap="butt" stroke-linejoin="miter" stroke-miterlimit="4.97494" transform="matrix(6.12323e-17,-1,1,6.12323e-17,-3.07386e-14,1421)"
font-family="Helvetica" font-size="107" font-weight="400" font-style="normal" 
>
<text fill="#000000" fill-opacity="1" stroke="none" xml:space="preserve" x="0" y="95" font-family="Helvetica" font-size="107" font-weight="400" font-style="normal" 
 >Number of Synapses</text>
</g>

<g fill="#ffffff" fill-opacity="1" stroke="#000000" stroke-opacity="1" stroke-width="1" stroke-linecap="butt" stroke-linejoin="miter" stroke-miterlimit="4.97494" transform="matrix(6.12323e-17,-1,1,6.12323e-17,-3.07386e-14,1421)"
font-family="MS Shell Dlg 2" font-size="104" font-weight="400" font-style="normal" 
>
</g>

<g fill="#ffffff" fill-opacity="1" stroke="#000000" stroke-opacity="1" stroke-width="1" stroke-linecap="butt" stroke-linejoin="miter" stroke-miterlimit="4.97494" transform="matrix(1,0,0,1,0,0)"
font-family="MS Shell Dlg 2" font-size="104" font-weight="400" font-style="normal" 
>
</g>

<g fill="#ffffff" fill-opacity="1" stroke="#000000" stroke-opacity="1" stroke-width="13" stroke-linecap="butt" stroke-linejoin="miter" stroke-miterlimit="4.97494" transform="matrix(1,0,0,1,0,0)"
font-family="MS Shell Dlg 2" font-size="104" font-weight="400" font-style="normal" 
>
<polyline fill="none" vector-effect="none" points="373,1738.5 2000,1738.5 " />
</g>

<g fill="#ffffff" fill-opacity="1" stroke="#000000" stroke-opacity="1" stroke-width="1" stroke-linecap="butt" stroke-linejoin="miter" stroke-miterlimit="4.97494" transform="matrix(1,0,0,1,0,0)"
font-family="MS Shell Dlg 2" font-size="104" font-weight="400" font-style="normal" 
>
</g>

<g fill="#ffffff" fill-opacity="1" stroke="#000000" stroke-opacity="1" stroke-width="13" stroke-linecap="butt" stroke-linejoin="miter" stroke-miterlimit="4.97494" transform="matrix(1,0,0,1,0,0)"
font-family="MS Shell Dlg 2" font-size="104" font-weight="400" font-style="normal" 
>
<polyline fill="none" vector-effect="none" points="400.5,1819 400.5,1732 " />
</g>

<g fill="#ffffff" fill-opacity="1" stroke="#000000" stroke-opacity="1" stroke-width="1" stroke-linecap="butt" stroke-linejoin="miter" stroke-miterlimit="4.97494" transform="matrix(1,0,0,1,0,0)"
font-family="MS Shell Dlg 2" font-size="104" font-weight="400" font-style="normal" 
>
</g>

<g fill="#ffffff" fill-opacity="1" stroke="#000000" stroke-opacity="1" stroke-width="13" stroke-linecap="butt" stroke-linejoin="miter" stroke-miterlimit="4.97494" transform="matrix(1,0,0,1,0,0)"
font-family="MS Shell Dlg 2" font-size="104" font-weight="400" font-style="normal" 
>
<polyline fill="none" vector-effect="none" points="600.5,1745 600.5,1732 " />
</g>

<g fill="#ffffff" fill-opacity="1" stroke="#000000" stroke-opacity="1" stroke-width="1" stroke-linecap="butt" stroke-linejoin="miter" stroke-miterlimit="4.97494" transform="matrix(1,0,0,1,0,0)"
font-family="MS Shell Dlg 2" font-size="104" font-weight="400" font-style="normal" 
>
</g>

<g fill="#ffffff" fill-opacity="1" stroke="#000000" stroke-opacity="1" stroke-width="1" stroke-linecap="butt" stroke-linejoin="miter" stroke-miterlimit="4.97494" transform="matrix(1,0,0,1,570,1788)"
font-family="MS Shell Dlg 2" font-size="104" font-weight="400" font-style="normal" 
>
</g>

<g fill="#ffffff" fill-opacity="1" stroke="#000000" stroke-opacity="1" stroke-width="0.01" stroke-linecap="butt" stroke-linejoin="miter" stroke-miterlimit="4.97494" transform="matrix(1,0,0,1,570,1788)"
font-family="Helvetica" font-size="107" font-weight="400" font-style="normal" 
>
<text fill="#000000" fill-opacity="1" stroke="none" xml:space="preserve" x="0" y="95" font-family="Helvetica" font-size="107" font-weight="400" font-style="normal" 
 >1</text>
</g>

<g fill="#ffffff" fill-opacity="1" stroke="#000000" stroke-opacity="1" stroke-width="1" stroke-linecap="butt" stroke-linejoin="miter" stroke-miterlimit="4.97494" transform="matrix(1,0,0,1,570,1788)"
font-family="MS Shell Dlg 2" font-size="104" font-weight="400" font-style="normal" 
>
</g>

<g fill="#ffffff" fill-opacity="1" stroke="#000000" stroke-opacity="1" stroke-width="1" stroke-linecap="butt" stroke-linejoin="miter" stroke-miterlimit="4.97494" transform="matrix(1,0,0,1,0,0)"
font-family="MS Shell Dlg 2" font-size="104" font-weight="400" font-style="normal" 
>
</g>

<g fill="#ffffff" fill-opacity="1" stroke="#000000" stroke-opacity="1" stroke-width="13" stroke-linecap="butt" stroke-linejoin="miter" stroke-miterlimit="4.97494" transform="matrix(1,0,0,1,0,0)"
font-family="MS Shell Dlg 2" font-size="104" font-weight="400" font-style="normal" 
>
<polyline fill="none" vector-effect="none" points="800.5,1819 800.5,1732 " />
</g>

<g fill="#ffffff" fill-opacity="1" stroke="#000000" stroke-opacity="1" stroke-width="1" stroke-linecap="butt" stroke-linejoin="miter" stroke-miterlimit="4.97494" transform="matrix(1,0,0,1,0,0)"
font-family="MS Shell Dlg 2" font-size="104" font-weight="400" font-style="normal" 
>
</g>

<g fill="#ffffff" fill-opacity="1" stroke="#000000" stroke-opacity="1" stroke-width="13" stroke-linecap="butt" stroke-linejoin="miter" stroke-miterlimit="4.97494" transform="matrix(1,0,0,1,0,0)"
font-family="MS Shell Dlg 2" font-size="104" font-weight="400" font-style="normal" 
>
<polyline fill="none" vector-effect="none" points="1000.5,1745 1000.5,1732 " />
</g>

<g fill="#ffffff" fill-opacity="1" stroke="#000000" stroke-opacity="1" stroke-width="1" stroke-linecap="butt" stroke-linejoin="miter" stroke-miterlimit="4.97494" transform="matrix(1,0,0,1,0,0)"
font-family="MS Shell Dlg 2" font-size="104" font-weight="400" font-style="normal" 
>
</g>

<g fill="#ffffff" fill-opacity="1" stroke="#000000" stroke-opacity="1" stroke-width="1" stroke-linecap="butt" stroke-linejoin="miter" stroke-miterlimit="4.97494" transform="matrix(1,0,0,1,970,1788)"
font-family="MS Shell Dlg 2" font-size="104" font-weight="400" font-style="normal" 
>
</g>

<g fill="#ffffff" fill-opacity="1" stroke="#000000" stroke-opacity="1" stroke-width="0.01" stroke-linecap="butt" stroke-linejoin="miter" stroke-miterlimit="4.97494" transform="matrix(1,0,0,1,970,1788)"
font-family="Helvetica" font-size="107" font-weight="400" font-style="normal" 
>
<text fill="#000000" fill-opacity="1" stroke="none" xml:space="preserve" x="0" y="95" font-family="Helvetica" font-size="107" font-weight="400" font-style="normal" 
 >2</text>
</g>

<g fill="#ffffff" fill-opacity="1" stroke="#000000" stroke-opacity="1" stroke-width="1" stroke-linecap="butt" stroke-linejoin="miter" stroke-miterlimit="4.97494" transform="matrix(1,0,0,1,970,1788)"
font-family="MS Shell Dlg 2" font-size="104" font-weight="400" font-style="normal" 
>
</g>

<g fill="#ffffff" fill-opacity="1" stroke="#000000" stroke-opacity="1" stroke-width="1" stroke-linecap="butt" stroke-linejoin="miter" stroke-miterlimit="4.97494" transform="matrix(1,0,0,1,0,0)"
font-family="MS Shell Dlg 2" font-size="104" font-weight="400" font-style="normal" 
>
</g>

<g fill="#ffffff" fill-opacity="1" stroke="#000000" stroke-opacity="1" stroke-width="13" stroke-linecap="butt" stroke-linejoin="miter" stroke-miterlimit="4.97494" transform="matrix(1,0,0,1,0,0)"
font-family="MS Shell Dlg 2" font-size="104" font-weight="400" font-style="normal" 
>
<polyline fill="none" vector-effect="none" points="1200.5,1819 1200.5,1732 " />
</g>

<g fill="#ffffff" fill-opacity="1" stroke="#000000" stroke-opacity="1" stroke-width="1" stroke-linecap="butt" stroke-linejoin="miter" stroke-miterlimit="4.97494" transform="matrix(1,0,0,1,0,0)"
font-family="MS Shell Dlg 2" font-size="104" font-weight="400" font-style="normal" 
>
</g>

<g fill="#ffffff" fill-opacity="1" stroke="#000000" stroke-opacity="1" stroke-width="13" stroke-linecap="butt" stroke-linejoin="miter" stroke-miterlimit="4.97494" transform="matrix(1,0,0,1,0,0)"
font-family="MS Shell Dlg 2" font-size="104" font-weight="400" font-style="normal" 
>
<polyline fill="none" vector-effect="none" points="1400.5,1745 1400.5,1732 " />
</g>

<g fill="#ffffff" fill-opacity="1" stroke="#000000" stroke-opacity="1" stroke-width="1" stroke-linecap="butt" stroke-linejoin="miter" stroke-miterlimit="4.97494" transform="matrix(1,0,0,1,0,0)"
font-family="MS Shell Dlg 2" font-size="104" font-weight="400" font-style="normal" 
>
</g>

<g fill="#ffffff" fill-opacity="1" stroke="#000000" stroke-opacity="1" stroke-width="1" stroke-linecap="butt" stroke-linejoin="miter" stroke-miterlimit="4.97494" transform="matrix(1,0,0,1,1370,1788)"
font-family="MS Shell Dlg 2" font-size="104" font-weight="400" font-style="normal" 
>
</g>

<g fill="#ffffff" fill-opacity="1" stroke="#000000" stroke-opacity="1" stroke-width="0.01" stroke-linecap="butt" stroke-linejoin="miter" stroke-miterlimit="4.97494" transform="matrix(1,0,0,1,1370,1788)"
font-family="Helvetica" font-size="107" font-weight="400" font-style="normal" 
>
<text fill="#000000" fill-opacity="1" stroke="none" xml:space="preserve" x="0" y="95" font-family="Helvetica" font-size="107" font-weight="400" font-style="normal" 
 >3</text>
</g>

<g fill="#ffffff" fill-opacity="1" stroke="#000000" stroke-opacity="1" stroke-width="1" stroke-linecap="butt" stroke-linejoin="miter" stroke-miterlimit="4.97494" transform="matrix(1,0,0,1,1370,1788)"
font-family="MS Shell Dlg 2" font-size="104" font-weight="400" font-style="normal" 
>
</g>

<g fill="#ffffff" fill-opacity="1" stroke="#000000" stroke-opacity="1" stroke-width="1" stroke-linecap="butt" stroke-linejoin="miter" stroke-miterlimit="4.97494" transform="matrix(1,0,0,1,0,0)"
font-family="MS Shell Dlg 2" font-size="104" font-weight="400" font-style="normal" 
>
</g>

<g fill="#ffffff" fill-opacity="1" stroke="#000000" stroke-opacity="1" stroke-width="13" stroke-linecap="butt" stroke-linejoin="miter" stroke-miterlimit="4.97494" transform="matrix(1,0,0,1,0,0)"
font-family="MS Shell Dlg 2" font-size="104" font-weight="400" font-style="normal" 
>
<polyline fill="none" vector-effect="none" points="1600.5,1819 1600.5,1732 " />
</g>

<g fill="#ffffff" fill-opacity="1" stroke="#000000" stroke-opacity="1" stroke-width="1" stroke-linecap="butt" stroke-linejoin="miter" stroke-miterlimit="4.97494" transform="matrix(1,0,0,1,0,0)"
font-family="MS Shell Dlg 2" font-size="104" font-weight="400" font-style="normal" 
>
</g>

<g fill="#ffffff" fill-opacity="1" stroke="#000000" stroke-opacity="1" stroke-width="13" stroke-linecap="butt" stroke-linejoin="miter" stroke-miterlimit="4.97494" transform="matrix(1,0,0,1,0,0)"
font-family="MS Shell Dlg 2" font-size="104" font-weight="400" font-style="normal" 
>
<polyline fill="none" vector-effect="none" points="1800.5,1745 1800.5,1732 " />
</g>

<g fill="#ffffff" fill-opacity="1" stroke="#000000" stroke-opacity="1" stroke-width="1" stroke-linecap="butt" stroke-linejoin="miter" stroke-miterlimit="4.97494" transform="matrix(1,0,0,1,0,0)"
font-family="MS Shell Dlg 2" font-size="104" font-weight="400" font-style="normal" 
>
</g>

<g fill="#ffffff" fill-opacity="1" stroke="#000000" stroke-opacity="1" stroke-width="1" stroke-linecap="butt" stroke-linejoin="miter" stroke-miterlimit="4.97494" transform="matrix(1,0,0,1,1770,1788)"
font-family="MS Shell Dlg 2" font-size="104" font-weight="400" font-style="normal" 
>
</g>

<g fill="#ffffff" fill-opacity="1" stroke="#000000" stroke-opacity="1" stroke-width="0.01" stroke-linecap="butt" stroke-linejoin="miter" stroke-miterlimit="4.97494" transform="matrix(1,0,0,1,1770,1788)"
font-family="Helvetica" font-size="107" font-weight="400" font-style="normal" 
>
<text fill="#000000" fill-opacity="1" stroke="none" xml:space="preserve" x="0" y="95" font-family="Helvetica" font-size="107" font-weight="400" font-style="normal" 
 >4</text>
</g>

<g fill="#ffffff" fill-opacity="1" stroke="#000000" stroke-opacity="1" stroke-width="1" stroke-linecap="butt" stroke-linejoin="miter" stroke-miterlimit="4.97494" transform="matrix(1,0,0,1,1770,1788)"
font-family="MS Shell Dlg 2" font-size="104" font-weight="400" font-style="normal" 
>
</g>

<g fill="#ffffff" fill-opacity="1" stroke="#000000" stroke-opacity="1" stroke-width="1" stroke-linecap="butt" stroke-linejoin="miter" stroke-miterlimit="4.97494" transform="matrix(1,0,0,1,0,0)"
font-family="MS Shell Dlg 2" font-size="104" font-weight="400" font-style="normal" 
>
</g>

<g fill="#ffffff" fill-opacity="1" stroke="#000000" stroke-opacity="1" stroke-width="13" stroke-linecap="butt" stroke-linejoin="miter" stroke-miterlimit="4.97494" transform="matrix(1,0,0,1,0,0)"
font-family="MS Shell Dlg 2" font-size="104" font-weight="400" font-style="normal" 
>
<polyline fill="none" vector-effect="none" points="2000.5,1819 2000.5,1732 " />
</g>

<g fill="#ffffff" fill-opacity="1" stroke="#000000" stroke-opacity="1" stroke-width="1" stroke-linecap="butt" stroke-linejoin="miter" stroke-miterlimit="4.97494" transform="matrix(1,0,0,1,0,0)"
font-family="MS Shell Dlg 2" font-size="104" font-weight="400" font-style="normal" 
>
</g>

<g fill="#ffffff" fill-opacity="1" stroke="#000000" stroke-opacity="1" stroke-width="1" stroke-linecap="butt" stroke-linejoin="miter" stroke-miterlimit="4.97494" transform="matrix(1,0,0,1,1029,1920)"
font-family="MS Shell Dlg 2" font-size="104" font-weight="400" font-style="normal" 
>
</g>

<g fill="#ffffff" fill-opacity="1" stroke="#000000" stroke-opacity="1" stroke-width="0.01" stroke-linecap="butt" stroke-linejoin="miter" stroke-miterlimit="4.97494" transform="matrix(1,0,0,1,1029,1920)"
font-family="Helvetica" font-size="107" font-weight="400" font-style="normal" 
>
<text fill="#000000" fill-opacity="1" stroke="none" xml:space="preserve" x="0" y="95" font-family="Helvetica" font-size="107" font-weight="400" font-style="normal" 
 >Cluster</text>
</g>

<g fill="#ffffff" fill-opacity="1" stroke="#000000" stroke-opacity="1" stroke-width="1" stroke-linecap="butt" stroke-linejoin="miter" stroke-miterlimit="4.97494" transform="matrix(1,0,0,1,1029,1920)"
font-family="MS Shell Dlg 2" font-size="104" font-weight="400" font-style="normal" 
>
</g>

<g fill="#ffffff" fill-opacity="1" stroke="#000000" stroke-opacity="1" stroke-width="1" stroke-linecap="butt" stroke-linejoin="miter" stroke-miterlimit="4.97494" transform="matrix(1,0,0,1,0,0)"
font-family="MS Shell Dlg 2" font-size="104" font-weight="400" font-style="normal" 
>
</g>

<g fill="#ffffff" fill-opacity="1" stroke="#000000" stroke-opacity="1" stroke-width="1" stroke-linecap="butt" stroke-linejoin="miter" stroke-miterlimit="4.97494" transform="matrix(1,0,0,1,0,0)"
font-family="MS Shell Dlg 2" font-size="104" font-weight="400" font-style="normal" 
>
</g>

<g fill="#ffffff" fill-opacity="1" stroke="#000000" stroke-opacity="1" stroke-width="1" stroke-linecap="butt" stroke-linejoin="miter" stroke-miterlimit="4.97494" transform="matrix(1,0,0,1,0,0)"
font-family="MS Shell Dlg 2" font-size="104" font-weight="400" font-style="normal" 
>
</g>

<g fill="#ffa0a0" fill-opacity="1" stroke="none" transform="matrix(1,0,0,1,0,0)"
font-family="MS Shell Dlg 2" font-size="104" font-weight="400" font-style="normal" 
>
<path vector-effect="none" fill-rule="nonzero" d="M427,233 L774,233 L774,486 L427,486 L427,233"/>
</g>

<g fill="none" stroke="#ff4040" stroke-opacity="1" stroke-width="13" stroke-linecap="butt" stroke-linejoin="miter" stroke-miterlimit="4.97494" transform="matrix(1,0,0,1,0,0)"
font-family="MS Shell Dlg 2" font-size="104" font-weight="400" font-style="normal" 
>
<path vector-effect="none" fill-rule="nonzero" d="M427,233 L774,233 L774,486 L427,486 L427,233"/>
</g>

<g fill="#ffa0a0" fill-opacity="1" stroke="none" transform="matrix(1,0,0,1,0,0)"
font-family="MS Shell Dlg 2" font-size="104" font-weight="400" font-style="normal" 
>
<path vector-effect="none" fill-rule="nonzero" d="M827,126 L1174,126 L1174,486 L827,486 L827,126"/>
</g>

<g fill="none" stroke="#ff4040" stroke-opacity="1" stroke-width="13" stroke-linecap="butt" stroke-linejoin="miter" stroke-miterlimit="4.97494" transform="matrix(1,0,0,1,0,0)"
font-family="MS Shell Dlg 2" font-size="104" font-weight="400" font-style="normal" 
>
<path vector-effect="none" fill-rule="nonzero" d="M827,126 L1174,126 L1174,486 L827,486 L827,126"/>
</g>

<g fill="#ffa0a0" fill-opacity="1" stroke="none" transform="matrix(1,0,0,1,0,0)"
font-family="MS Shell Dlg 2" font-size="104" font-weight="400" font-style="normal" 
>
<path vector-effect="none" fill-rule="nonzero" d="M1227,979 L1574,979 L1574,1180 L1227,1180 L1227,979"/>
</g>

<g fill="none" stroke="#ff4040" stroke-opacity="1" stroke-width="13" stroke-linecap="butt" stroke-linejoin="miter" stroke-miterlimit="4.97494" transform="matrix(1,0,0,1,0,0)"
font-family="MS Shell Dlg 2" font-size="104" font-weight="400" font-style="normal" 
>
<path vector-effect="none" fill-rule="nonzero" d="M1227,979 L1574,979 L1574,1180 L1227,1180 L1227,979"/>
</g>

<g fill="#ffa0a0" fill-opacity="1" stroke="none" transform="matrix(1,0,0,1,0,0)"
font-family="MS Shell Dlg 2" font-size="104" font-weight="400" font-style="normal" 
>
<path vector-effect="none" fill-rule="nonzero" d="M1627,606 L1974,606 L1974,966 L1627,966 L1627,606"/>
</g>

<g fill="none" stroke="#ff4040" stroke-opacity="1" stroke-width="13" stroke-linecap="butt" stroke-linejoin="miter" stroke-miterlimit="4.97494" transform="matrix(1,0,0,1,0,0)"
font-family="MS Shell Dlg 2" font-size="104" font-weight="400" font-style="normal" 
>
<path vector-effect="none" fill-rule="nonzero" d="M1627,606 L1974,606 L1974,966 L1627,966 L1627,606"/>
</g>

<g fill="#ffffff" fill-opacity="1" stroke="#000000" stroke-opacity="1" stroke-width="1" stroke-linecap="butt" stroke-linejoin="miter" stroke-miterlimit="4.97494" transform="matrix(1,0,0,1,0,0)"
font-family="MS Shell Dlg 2" font-size="104" font-weight="400" font-style="normal" 
>
</g>

<g fill="#ffffff" fill-opacity="1" stroke="#000000" stroke-opacity="1" stroke-width="1" stroke-linecap="butt" stroke-linejoin="miter" stroke-miterlimit="4.97494" transform="matrix(1,0,0,1,0,0)"
font-family="MS Shell Dlg 2" font-size="104" font-weight="400" font-style="normal" 
>
</g>

<g fill="#809fff" fill-opacity="1" stroke="none" transform="matrix(1,0,0,1,0,0)"
font-family="MS Shell Dlg 2" font-size="104" font-weight="400" font-style="normal" 
>
<path vector-effect="none" fill-rule="nonzero" d="M427,499 L774,499 L774,1286 L427,1286 L427,499"/>
</g>

<g fill="none" stroke="#003eff" stroke-opacity="1" stroke-width="13" stroke-linecap="butt" stroke-linejoin="miter" stroke-miterlimit="4.97494" transform="matrix(1,0,0,1,0,0)"
font-family="MS Shell Dlg 2" font-size="104" font-weight="400" font-style="normal" 
>
<path vector-effect="none" fill-rule="nonzero" d="M427,499 L774,499 L774,1286 L427,1286 L427,499"/>
</g>

<g fill="#809fff" fill-opacity="1" stroke="none" transform="matrix(1,0,0,1,0,0)"
font-family="MS Shell Dlg 2" font-size="104" font-weight="400" font-style="normal" 
>
<path vector-effect="none" fill-rule="nonzero" d="M827,499 L1174,499 L1174,1713 L827,1713 L827,499"/>
</g>

<g fill="none" stroke="#003eff" stroke-opacity="1" stroke-width="13" stroke-linecap="butt" stroke-linejoin="miter" stroke-miterlimit="4.97494" transform="matrix(1,0,0,1,0,0)"
font-family="MS Shell Dlg 2" font-size="104" font-weight="400" font-style="normal" 
>
<path vector-effect="none" fill-rule="nonzero" d="M827,499 L1174,499 L1174,1713 L827,1713 L827,499"/>
</g>

<g fill="#809fff" fill-opacity="1" stroke="none" transform="matrix(1,0,0,1,0,0)"
font-family="MS Shell Dlg 2" font-size="104" font-weight="400" font-style="normal" 
>
<path vector-effect="none" fill-rule="nonzero" d="M1227,1193 L1574,1193 L1574,1606 L1227,1606 L1227,1193"/>
</g>

<g fill="none" stroke="#003eff" stroke-opacity="1" stroke-width="13" stroke-linecap="butt" stroke-linejoin="miter" stroke-miterlimit="4.97494" transform="matrix(1,0,0,1,0,0)"
font-family="MS Shell Dlg 2" font-size="104" font-weight="400" font-style="normal" 
>
<path vector-effect="none" fill-rule="nonzero" d="M1227,1193 L1574,1193 L1574,1606 L1227,1606 L1227,1193"/>
</g>

<g fill="#809fff" fill-opacity="1" stroke="none" transform="matrix(1,0,0,1,0,0)"
font-family="MS Shell Dlg 2" font-size="104" font-weight="400" font-style="normal" 
>
<path vector-effect="none" fill-rule="nonzero" d="M1627,979 L1974,979 L1974,1500 L1627,1500 L1627,979"/>
</g>

<g fill="none" stroke="#003eff" stroke-opacity="1" stroke-width="13" stroke-linecap="butt" stroke-linejoin="miter" stroke-miterlimit="4.97494" transform="matrix(1,0,0,1,0,0)"
font-family="MS Shell Dlg 2" font-size="104" font-weight="400" font-style="normal" 
>
<path vector-effect="none" fill-rule="nonzero" d="M1627,979 L1974,979 L1974,1500 L1627,1500 L1627,979"/>
</g>

<g fill="#ffffff" fill-opacity="1" stroke="#000000" stroke-opacity="1" stroke-width="1" stroke-linecap="butt" stroke-linejoin="miter" stroke-miterlimit="4.97494" transform="matrix(1,0,0,1,0,0)"
font-family="MS Shell Dlg 2" font-size="104" font-weight="400" font-style="normal" 
>
</g>

<g fill="#ffffff" fill-opacity="1" stroke="#000000" stroke-opacity="1" stroke-width="1" stroke-linecap="butt" stroke-linejoin="miter" stroke-miterlimit="4.97494" transform="matrix(1,0,0,1,0,0)"
font-family="MS Shell Dlg 2" font-size="104" font-weight="400" font-style="normal" 
>
</g>

<g fill="#ffd5bf" fill-opacity="1" stroke="none" transform="matrix(1,0,0,1,0,0)"
font-family="MS Shell Dlg 2" font-size="104" font-weight="400" font-style="normal" 
>
<path vector-effect="none" fill-rule="nonzero" d="M427,1299 L774,1299 L774,1713 L427,1713 L427,1299"/>
</g>

<g fill="none" stroke="#ffaa80" stroke-opacity="1" stroke-width="13" stroke-linecap="butt" stroke-linejoin="miter" stroke-miterlimit="4.97494" transform="matrix(1,0,0,1,0,0)"
font-family="MS Shell Dlg 2" font-size="104" font-weight="400" font-style="normal" 
>
<path vector-effect="none" fill-rule="nonzero" d="M427,1299 L774,1299 L774,1713 L427,1713 L427,1299"/>
</g>

<g fill="#ffaa80" fill-opacity="1" stroke="none" transform="matrix(1,0,0,1,0,0)"
font-family="MS Shell Dlg 2" font-size="104" font-weight="400" font-style="normal" 
>
<path vector-effect="none" fill-rule="nonzero" d="M820.5,1706.5 L1180.5,1706.5 L1180.5,1719.5 L820.5,1719.5 L820.5,1706.5"/>
</g>

<g fill="#ffd5bf" fill-opacity="1" stroke="none" transform="matrix(1,0,0,1,0,0)"
font-family="MS Shell Dlg 2" font-size="104" font-weight="400" font-style="normal" 
>
<path vector-effect="none" fill-rule="nonzero" d="M1227,1619 L1574,1619 L1574,1713 L1227,1713 L1227,1619"/>
</g>

<g fill="none" stroke="#ffaa80" stroke-opacity="1" stroke-width="13" stroke-linecap="butt" stroke-linejoin="miter" stroke-miterlimit="4.97494" transform="matrix(1,0,0,1,0,0)"
font-family="MS Shell Dlg 2" font-size="104" font-weight="400" font-style="normal" 
>
<path vector-effect="none" fill-rule="nonzero" d="M1227,1619 L1574,1619 L1574,1713 L1227,1713 L1227,1619"/>
</g>

<g fill="#ffd5bf" fill-opacity="1" stroke="none" transform="matrix(1,0,0,1,0,0)"
font-family="MS Shell Dlg 2" font-size="104" font-weight="400" font-style="normal" 
>
<path vector-effect="none" fill-rule="nonzero" d="M1627,1513 L1974,1513 L1974,1713 L1627,1713 L1627,1513"/>
</g>

<g fill="none" stroke="#ffaa80" stroke-opacity="1" stroke-width="13" stroke-linecap="butt" stroke-linejoin="miter" stroke-miterlimit="4.97494" transform="matrix(1,0,0,1,0,0)"
font-family="MS Shell Dlg 2" font-size="104" font-weight="400" font-style="normal" 
>
<path vector-effect="none" fill-rule="nonzero" d="M1627,1513 L1974,1513 L1974,1713 L1627,1713 L1627,1513"/>
</g>

<g fill="#ffffff" fill-opacity="1" stroke="#000000" stroke-opacity="1" stroke-width="1" stroke-linecap="butt" stroke-linejoin="miter" stroke-miterlimit="4.97494" transform="matrix(1,0,0,1,0,0)"
font-family="MS Shell Dlg 2" font-size="104" font-weight="400" font-style="normal" 
>
</g>

<g fill="#ffffff" fill-opacity="1" stroke="#000000" stroke-opacity="1" stroke-width="1" stroke-linecap="butt" stroke-linejoin="miter" stroke-miterlimit="4.97494" transform="matrix(1,0,0,1,0,0)"
font-family="MS Shell Dlg 2" font-size="104" font-weight="400" font-style="normal" 
>
</g>

<g fill="#ffffff" fill-opacity="1" stroke="none" transform="matrix(1,0,0,1,1469,109)"
font-family="MS Shell Dlg 2" font-size="104" font-weight="400" font-style="normal" 
>
<rect x="-0.5" y="-0.5" width="519" height="357"/>
</g>

<g fill="#ffa0a0" fill-opacity="1" stroke="none" transform="matrix(1,0,0,1,1469,109)"
font-family="MS Shell Dlg 2" font-size="104" font-weight="400" font-style="normal" 
>
<path vector-effect="none" fill-rule="nonzero" d="M73,37 L161,37 L161,91 L73,91 L73,37"/>
</g>

<g fill="none" stroke="#ff4040" stroke-opacity="1" stroke-width="13" stroke-linecap="butt" stroke-linejoin="miter" stroke-miterlimit="4.97494" transform="matrix(1,0,0,1,1469,109)"
font-family="MS Shell Dlg 2" font-size="104" font-weight="400" font-style="normal" 
>
<path vector-effect="none" fill-rule="nonzero" d="M73,37 L161,37 L161,91 L73,91 L73,37"/>
</g>

<g fill="none" stroke="#ff4040" stroke-opacity="1" stroke-width="13" stroke-linecap="butt" stroke-linejoin="miter" stroke-miterlimit="4.97494" transform="matrix(1,0,0,1,1469,109)"
font-family="MS Shell Dlg 2" font-size="104" font-weight="400" font-style="normal" 
>
</g>

<g fill="none" stroke="#000000" stroke-opacity="1" stroke-width="0.01" stroke-linecap="butt" stroke-linejoin="miter" stroke-miterlimit="4.97494" transform="matrix(1,0,0,1,1469,109)"
font-family="Helvetica" font-size="107" font-weight="400" font-style="normal" 
>
<text fill="#000000" fill-opacity="1" stroke="none" xml:space="preserve" x="232" y="95" font-family="Helvetica" font-size="107" font-weight="400" font-style="normal" 
 > DB4</text>
</g>

<g fill="none" stroke="#ff4040" stroke-opacity="1" stroke-width="13" stroke-linecap="butt" stroke-linejoin="miter" stroke-miterlimit="4.97494" transform="matrix(1,0,0,1,1469,109)"
font-family="MS Shell Dlg 2" font-size="104" font-weight="400" font-style="normal" 
>
</g>

<g fill="#809fff" fill-opacity="1" stroke="none" transform="matrix(1,0,0,1,1469,109)"
font-family="MS Shell Dlg 2" font-size="104" font-weight="400" font-style="normal" 
>
<path vector-effect="none" fill-rule="nonzero" d="M73,156 L161,156 L161,210 L73,210 L73,156"/>
</g>

<g fill="none" stroke="#003eff" stroke-opacity="1" stroke-width="13" stroke-linecap="butt" stroke-linejoin="miter" stroke-miterlimit="4.97494" transform="matrix(1,0,0,1,1469,109)"
font-family="MS Shell Dlg 2" font-size="104" font-weight="400" font-style="normal" 
>
<path vector-effect="none" fill-rule="nonzero" d="M73,156 L161,156 L161,210 L73,210 L73,156"/>
</g>

<g fill="none" stroke="#003eff" stroke-opacity="1" stroke-width="13" stroke-linecap="butt" stroke-linejoin="miter" stroke-miterlimit="4.97494" transform="matrix(1,0,0,1,1469,109)"
font-family="MS Shell Dlg 2" font-size="104" font-weight="400" font-style="normal" 
>
</g>

<g fill="none" stroke="#000000" stroke-opacity="1" stroke-width="0.01" stroke-linecap="butt" stroke-linejoin="miter" stroke-miterlimit="4.97494" transform="matrix(1,0,0,1,1469,109)"
font-family="Helvetica" font-size="107" font-weight="400" font-style="normal" 
>
<text fill="#000000" fill-opacity="1" stroke="none" xml:space="preserve" x="232" y="214" font-family="Helvetica" font-size="107" font-weight="400" font-style="normal" 
 > DB5</text>
</g>

<g fill="none" stroke="#003eff" stroke-opacity="1" stroke-width="13" stroke-linecap="butt" stroke-linejoin="miter" stroke-miterlimit="4.97494" transform="matrix(1,0,0,1,1469,109)"
font-family="MS Shell Dlg 2" font-size="104" font-weight="400" font-style="normal" 
>
</g>

<g fill="#ffd5bf" fill-opacity="1" stroke="none" transform="matrix(1,0,0,1,1469,109)"
font-family="MS Shell Dlg 2" font-size="104" font-weight="400" font-style="normal" 
>
<path vector-effect="none" fill-rule="nonzero" d="M73,275 L161,275 L161,329 L73,329 L73,275"/>
</g>

<g fill="none" stroke="#ffaa80" stroke-opacity="1" stroke-width="13" stroke-linecap="butt" stroke-linejoin="miter" stroke-miterlimit="4.97494" transform="matrix(1,0,0,1,1469,109)"
font-family="MS Shell Dlg 2" font-size="104" font-weight="400" font-style="normal" 
>
<path vector-effect="none" fill-rule="nonzero" d="M73,275 L161,275 L161,329 L73,329 L73,275"/>
</g>

<g fill="none" stroke="#ffaa80" stroke-opacity="1" stroke-width="13" stroke-linecap="butt" stroke-linejoin="miter" stroke-miterlimit="4.97494" transform="matrix(1,0,0,1,1469,109)"
font-family="MS Shell Dlg 2" font-size="104" font-weight="400" font-style="normal" 
>
</g>

<g fill="none" stroke="#000000" stroke-opacity="1" stroke-width="0.01" stroke-linecap="butt" stroke-linejoin="miter" stroke-miterlimit="4.97494" transform="matrix(1,0,0,1,1469,109)"
font-family="Helvetica" font-size="107" font-weight="400" font-style="normal" 
>
<text fill="#000000" fill-opacity="1" stroke="none" xml:space="preserve" x="232" y="333" font-family="Helvetica" font-size="107" font-weight="400" font-style="normal" 
 > Giant</text>
</g>

<g fill="none" stroke="#ffaa80" stroke-opacity="1" stroke-width="13" stroke-linecap="butt" stroke-linejoin="miter" stroke-miterlimit="4.97494" transform="matrix(1,0,0,1,1469,109)"
font-family="MS Shell Dlg 2" font-size="104" font-weight="400" font-style="normal" 
>
</g>

<g fill="#ffffff" fill-opacity="1" stroke="#000000" stroke-opacity="1" stroke-width="1" stroke-linecap="butt" stroke-linejoin="miter" stroke-miterlimit="4.97494" transform="matrix(1,0,0,1,0,0)"
font-family="MS Shell Dlg 2" font-size="104" font-weight="400" font-style="normal" 
>
</g>
</g>
</svg>
